<svg width="26" height="26" viewBox="0 0 26 26" fill="none" xmlns="http://www.w3.org/2000/svg">
<path d="M9.5859 21.5012C8.57874 21.5012 7.76228 22.4339 7.76228 23.5845C7.76228 24.6529 8.46624 25.5335 9.3732 25.6539L9.5859 25.6678H24.1749C25.1821 25.6678 25.9985 24.7351 25.9985 23.5845C25.9985 22.5161 25.2946 21.6355 24.3876 21.5152L24.1749 21.5012H9.5859ZM2.2914 11.0845C1.28424 11.0845 0.467773 12.0173 0.467773 13.1678C0.467773 14.2363 1.17174 15.1168 2.0787 15.2372L2.2914 15.2512H24.1749C25.1821 15.2512 25.9985 14.3184 25.9985 13.1678C25.9985 12.0994 25.2946 11.2188 24.3876 11.0985L24.1749 11.0845H2.2914ZM2.2914 0.667847C1.28424 0.667847 0.467773 1.60059 0.467773 2.75118C0.467773 3.81959 1.17174 4.70018 2.0787 4.82053L2.2914 4.83451H24.1749C25.1821 4.83451 25.9985 3.90177 25.9985 2.75118C25.9985 1.68277 25.2946 0.802178 24.3876 0.681834L24.1749 0.667847H2.2914Z" fill="white"/>
</svg>
