<svg width="45" height="36" viewBox="0 0 45 36" fill="none" xmlns="http://www.w3.org/2000/svg">
<path d="M44.3448 17.25C44.3448 18.4329 43.9013 19.5171 43.162 20.2564C36.3113 27.0579 29.2141 30.5079 22.0184 30.5079C21.8705 30.5079 21.6734 30.5079 21.5255 30.5079C19.5541 30.4586 17.7305 30.1629 15.9563 29.7193L18.7162 26.9593C19.8005 27.3536 20.9834 27.5507 22.2155 27.5507C27.8834 27.5507 32.5163 22.9179 32.5163 17.25C32.5163 16.0179 32.2698 14.835 31.9248 13.8L36.8041 8.92072C38.9727 10.3993 41.1413 12.1736 43.2605 14.2929C43.9013 14.9829 44.3448 16.0671 44.3448 17.25ZM22.1663 24.1007C25.9613 24.1007 29.017 21.045 29.017 17.25C29.017 17.0529 29.017 16.8064 28.9677 16.6093L21.5255 24.1007C21.7227 24.1007 21.9691 24.1007 22.1663 24.1007ZM39.2191 2.21786L6.44411 34.9929C6.19768 35.1407 5.95125 35.19 5.70482 35.19C5.31054 35.19 4.96554 35.0421 4.66982 34.7464C4.07839 34.155 4.07839 33.2186 4.66982 32.6764L10.042 27.3043C6.04982 25.0864 2.94482 22.2279 1.07196 20.1579C-0.357321 18.63 -0.357321 15.87 1.07196 14.3421C4.52196 10.5471 11.8162 4.23857 21.5255 3.99214C24.8277 3.89357 28.1298 4.58357 31.3827 5.96357L36.9027 0.443571C37.4941 -0.147857 38.4305 -0.147857 38.9727 0.443571C39.4655 0.936429 39.5148 1.67571 39.2191 2.21786ZM19.7512 17.595C19.7512 17.4964 19.702 17.3486 19.702 17.25C19.702 16.7079 19.2584 16.2643 18.7162 16.2643C18.1741 16.2643 17.7305 16.7079 17.7305 17.25C17.7305 17.94 17.8784 18.5807 18.1741 19.1229L19.7512 17.595ZM28.327 9.01929C26.602 7.73786 24.4827 6.94929 22.1663 6.94929C16.4984 6.94929 11.8655 11.5821 11.8655 17.25C11.8655 19.5664 12.6541 21.6857 13.9355 23.4107L16.3998 20.9464C15.7098 19.8621 15.3155 18.63 15.3155 17.25C15.3155 13.455 18.3713 10.3993 22.1663 10.3993C23.5463 10.3993 24.7784 10.7936 25.8627 11.4836L28.327 9.01929Z" fill="#14FF8E"/>
</svg>
