<svg width="517" height="478" viewBox="0 0 517 478" fill="none" xmlns="http://www.w3.org/2000/svg">
<g filter="url(#filter0_d_646_10147)">
<path d="M260.191 470C365.268 470 450.45 462.794 450.45 453.905C450.45 445.016 365.268 437.81 260.191 437.81C155.114 437.81 69.9319 445.016 69.9319 453.905C69.9319 462.794 155.114 470 260.191 470Z" fill="#00FF00"/>
<path opacity="0.5" d="M260.191 470C365.268 470 450.45 462.794 450.45 453.905C450.45 445.016 365.268 437.81 260.191 437.81C155.114 437.81 69.9319 445.016 69.9319 453.905C69.9319 462.794 155.114 470 260.191 470Z" fill="white"/>
<path d="M405.012 141.775C405.66 146.517 403.07 153.454 397.521 152.929C396.614 152.828 395.726 152.624 394.878 152.321C395.42 148.817 393.029 144.858 395.011 141.81C396.081 140.104 398.803 136.939 400.917 136.659C403.797 136.25 404.643 139.17 405.012 141.775Z" fill="#00FF00"/>
<path d="M398.895 156.795C397.045 160.298 394.509 163.16 388.55 163.02C387.215 162.971 385.92 162.608 384.797 161.969C384.24 161.671 383.762 161.27 383.395 160.795C383.028 160.319 382.781 159.78 382.67 159.212C382.612 158.468 382.806 157.725 383.227 157.078C383.648 156.431 384.278 155.91 385.035 155.58C386.564 154.917 388.235 154.551 389.937 154.505C391.752 154.404 393.574 154.57 395.328 154.996C396.626 155.408 397.833 156.017 398.895 156.795Z" fill="#00FF00"/>
<path d="M385.722 144.075C391.972 150.394 398.855 156.024 405.078 162.109" stroke="#00FF00" stroke-miterlimit="10"/>
<path d="M424.937 161.139C425.129 163.826 424.336 166.497 422.677 168.755C421.079 170.857 418.714 172.107 416.071 171.534C415.211 171.311 414.378 171.009 413.587 170.635C413.974 168.824 414.023 166.97 413.733 165.145C413.382 163.38 413.654 161.561 414.512 159.936C415.622 158.243 418.264 154.972 420.563 154.926C423.629 154.867 424.765 158.301 424.937 161.139Z" fill="#00FF00"/>
<path d="M416.745 175.517C415.626 177.101 414.101 178.43 412.293 179.395C410.185 180.352 407.778 180.664 405.448 180.283C404.238 180.144 403.095 179.711 402.145 179.033C401.683 178.744 401.309 178.358 401.057 177.909C400.806 177.461 400.685 176.964 400.705 176.464C400.81 175.738 401.128 175.05 401.626 174.466C402.124 173.882 402.786 173.423 403.546 173.135C405.069 172.551 406.723 172.283 408.382 172.352C410.162 172.358 411.923 172.68 413.561 173.298C414.761 173.868 415.839 174.619 416.745 175.517Z" fill="#00FF00"/>
<path d="M405.078 162.167C408.236 165.169 411.13 168.358 413.957 171.581C416.785 174.805 419.322 178.239 421.687 181.754" stroke="#00FF00" stroke-miterlimit="10"/>
<path d="M441.386 184.043C440.58 189.159 435.573 194.789 430.473 192.792C429.659 192.454 428.899 192.022 428.214 191.507C428.653 190.68 428.96 189.804 429.125 188.902C429.297 188.003 429.389 187.069 429.508 186.146C429.561 184.35 430.239 182.612 431.451 181.17C432.917 179.699 436.181 176.954 438.493 177.281C441.466 177.748 441.809 181.287 441.386 184.043Z" fill="#00FF00"/>
<path d="M430.354 196.821C427.249 199.659 423.814 201.493 418.291 199.753C415.926 199.064 413.799 197.16 414.327 195.081C414.567 194.382 415.015 193.754 415.624 193.261C416.233 192.768 416.981 192.428 417.789 192.278C419.428 191.946 421.131 191.946 422.77 192.278C424.509 192.613 426.162 193.231 427.645 194.1C428.738 194.844 429.658 195.768 430.354 196.821Z" fill="#00FF00"/>
<path d="M421.647 181.696C426.41 188.732 430.574 196.072 434.106 203.654" stroke="#00FF00" stroke-miterlimit="10"/>
<path d="M453.357 208.992C452.499 211.638 450.632 213.941 448.072 215.509C445.694 216.922 442.985 217.261 440.765 215.824C440.053 215.343 439.406 214.79 438.836 214.178C439.982 212.624 440.768 210.885 441.148 209.062C441.451 207.297 442.376 205.663 443.791 204.39C445.456 203.128 449.182 200.886 451.375 201.423C452.038 201.616 452.619 201.983 453.039 202.476C453.46 202.968 453.7 203.563 453.727 204.18C454.004 205.788 453.878 207.431 453.357 208.992Z" fill="#00FF00"/>
<path d="M439.682 219.725C435.93 221.851 432.072 222.751 427.196 220.263C425.135 219.223 423.51 217.296 424.554 215.591C425.001 215.007 425.587 214.517 426.272 214.156C426.957 213.794 427.724 213.571 428.517 213.5C430.147 213.343 431.796 213.548 433.313 214.096C434.955 214.646 436.446 215.498 437.687 216.595C438.575 217.515 439.252 218.578 439.682 219.725Z" fill="#00FF00"/>
<path d="M434.146 203.654L436.788 209.365C437.602 211.249 438.295 213.171 438.863 215.124C440.036 219.057 440.906 223.057 441.466 227.095" stroke="#00FF00" stroke-miterlimit="10"/>
<path d="M458.06 236.918C456.376 239.214 453.882 240.954 450.965 241.87C448.217 242.653 445.548 242.302 443.831 240.387C443.302 239.749 442.859 239.059 442.509 238.331C445.786 236.205 446.869 231.709 450.516 230.155C452.538 229.361 456.845 228.053 458.747 229.256C461.284 230.973 459.844 234.582 458.06 236.918Z" fill="#00FF00"/>
<path d="M441.466 243.926C439.46 244.508 437.329 244.664 435.242 244.381C432.968 243.953 430.897 242.918 429.31 241.415C427.645 239.943 426.668 237.712 428.213 236.171C428.808 235.672 429.534 235.312 430.325 235.123C431.115 234.933 431.947 234.92 432.745 235.084C434.362 235.411 435.872 236.062 437.158 236.988C438.55 237.941 439.71 239.133 440.567 240.492C441.122 241.573 441.427 242.74 441.466 243.926Z" fill="#00FF00"/>
<path d="M441.466 227.095C442.677 235.151 442.45 243.325 440.792 251.319" stroke="#00FF00" stroke-miterlimit="10"/>
<path d="M452.3 266.117C450.984 266.975 449.515 267.631 447.953 268.056C446.469 268.455 444.913 268.597 443.368 268.477C442.047 268.445 440.772 268.039 439.732 267.317C438.692 266.596 437.943 265.598 437.594 264.471C437.419 263.701 437.321 262.919 437.304 262.135C439.305 261.576 441.154 260.658 442.734 259.437C444.253 258.213 446.122 257.381 448.138 257.031C450.344 256.867 454.942 256.797 456.25 258.607C458.047 260.978 455.074 264.225 452.3 266.117Z" fill="#00FF00"/>
<path d="M433.855 266.655C431.683 266.408 429.627 265.645 427.906 264.448C426.184 263.251 424.862 261.665 424.078 259.857C423.14 258.047 423.113 256.073 425.069 255.337C425.84 255.128 426.654 255.071 427.453 255.17C428.252 255.269 429.017 255.521 429.693 255.909C431.071 256.689 432.221 257.746 433.049 258.993C433.945 260.292 434.496 261.753 434.661 263.268C434.684 264.436 434.409 265.594 433.855 266.655Z" fill="#00FF00"/>
<path d="M440.739 251.319C439.854 255.264 438.467 259.108 436.603 262.777C434.713 266.404 432.234 269.769 429.244 272.763" stroke="#00FF00" stroke-miterlimit="10"/>
<path d="M432.468 289.816C429.532 290.17 426.544 289.789 423.84 288.718C421.198 287.632 419.493 285.798 419.731 283.357C419.824 282.556 420.042 281.77 420.378 281.021C424.342 281.465 428.795 279.246 432.27 280.963C433.539 281.588 434.757 282.291 435.916 283.065C436.506 283.411 437.011 283.858 437.401 284.38C437.791 284.901 438.059 285.487 438.189 286.102C438.717 288.601 435.454 289.477 432.468 289.816Z" fill="#00FF00"/>
<path d="M415.358 284.56C411.394 282.878 408.316 280.542 408.316 275.426C408.316 273.265 409.756 270.696 412.372 270.357C413.216 270.29 414.063 270.447 414.805 270.809C415.547 271.172 416.149 271.722 416.534 272.389C417.309 273.725 417.759 275.189 417.855 276.688C418.012 278.284 417.855 279.892 417.392 281.441C416.938 282.583 416.248 283.64 415.358 284.56Z" fill="#00FF00"/>
<path d="M429.244 272.763C428.544 273.534 427.685 274.2 426.919 274.924L424.395 277.096L419.414 281.5C417.762 282.948 416.124 284.396 414.433 285.786C413.587 286.475 412.742 287.164 411.87 287.83C410.998 288.496 410.112 289.138 409.227 289.862" stroke="#00FF00" stroke-miterlimit="10"/>
<path d="M413.719 306.097C412.404 306.237 411.078 306.272 409.756 306.203C408.322 306.126 406.9 305.918 405.514 305.584C402.872 304.93 400.494 303.575 400.23 301.134C400.169 300.331 400.24 299.524 400.441 298.739C404.537 298.622 408.567 296.251 412.147 297.968C414.089 298.844 417.67 301.215 418.225 302.956C418.422 303.403 418.422 303.899 418.225 304.346C418.033 304.736 417.691 305.055 417.26 305.245C416.138 305.693 414.943 305.981 413.719 306.097Z" fill="#00FF00"/>
<path d="M396.239 303.248C394.13 303.074 392.097 302.461 390.307 301.461C388.629 300.386 387.4 298.669 387.083 295.621C386.792 293.086 388.404 289.582 391.258 288.73C392.087 288.484 392.986 288.5 393.803 288.775C394.619 289.05 395.303 289.566 395.737 290.236C396.6 291.591 397.148 293.084 397.349 294.628C397.629 296.279 397.683 297.953 397.508 299.615C397.272 300.871 396.845 302.093 396.239 303.248Z" fill="#00FF00"/>
<path d="M409.214 289.863C401.994 295.557 396.31 302.609 392.58 310.501" stroke="#00FF00" stroke-miterlimit="10"/>
<path d="M404.471 323.454C402.143 324.747 399.554 325.632 396.847 326.058C394.046 326.444 391.364 326.129 389.924 324.014C389.464 323.316 389.143 322.554 388.973 321.76C392.58 320.113 395.143 316.469 399.186 316.645C401.366 316.645 405.792 317.45 407.113 318.84C408.87 320.639 406.611 322.181 404.471 323.454Z" fill="#00FF00"/>
<path d="M387.295 327.437C383.04 328.499 378.878 329.212 375.311 323.991C374.562 322.747 374.167 321.36 374.161 319.95C374.156 318.56 374.73 317.217 375.773 316.177C376.417 315.646 377.246 315.327 378.124 315.272C379.002 315.216 379.874 315.429 380.596 315.874C382.01 316.778 383.213 317.917 384.137 319.226C385.188 320.618 386.048 322.116 386.7 323.687C386.924 324.293 387.061 324.921 387.11 325.556C387.295 326.187 387.295 326.853 387.295 327.437Z" fill="#00FF00"/>
<path d="M392.579 310.501C388.79 318.358 387.051 326.869 387.493 335.402" stroke="#00FF00" stroke-miterlimit="10"/>
<path d="M499.6 273.126C498.414 274.166 497.015 274.999 495.478 275.578C494.06 276.139 492.526 276.433 490.973 276.443C489.649 276.534 488.328 276.241 487.21 275.608C486.092 274.976 485.237 274.039 484.776 272.939C484.487 272.182 484.301 271.398 484.221 270.603C486.146 269.835 487.863 268.712 489.255 267.309C490.589 265.888 492.3 264.78 494.236 264.085C496.39 263.595 500.908 262.707 502.533 264.471C503.02 265.11 503.309 265.851 503.369 266.62C503.429 267.389 503.26 268.158 502.877 268.851C502.138 270.464 501.021 271.92 499.6 273.126Z" fill="#00FF00"/>
<path d="M481.222 275.531C479.023 275.499 476.877 274.929 475.022 273.884C473.168 272.838 471.678 271.359 470.718 269.609C469.674 267.904 469.238 266.012 471.114 265.23C472.621 264.735 474.287 264.785 475.752 265.37C477.233 265.953 478.523 266.857 479.504 267.998C480.588 269.182 481.331 270.581 481.671 272.074C481.808 273.242 481.655 274.421 481.222 275.531Z" fill="#00FF00"/>
<path d="M485.754 259.647C485.588 267.722 482.674 275.565 477.39 282.154" stroke="#00FF00" stroke-miterlimit="10"/>
<path d="M481.552 299.709C478.49 300.367 475.263 300.053 472.436 298.821C469.886 297.653 468.313 295.679 468.683 293.238C468.846 292.441 469.094 291.659 469.423 290.902C473.387 291.498 477.853 288.87 481.697 289.898C483.798 290.517 488.066 292.047 488.449 294.161C489.03 297.081 484.882 299.008 481.552 299.709Z" fill="#00FF00"/>
<path d="M464.257 294.149C462.391 293.272 460.784 292.02 459.567 290.493C458.358 288.739 457.773 286.704 457.889 284.653C457.874 283.656 458.156 282.673 458.708 281.803C458.94 281.414 459.285 281.087 459.708 280.855C460.13 280.623 460.615 280.495 461.112 280.483C461.923 280.534 462.709 280.749 463.41 281.111C464.111 281.474 464.709 281.974 465.155 282.574C466.069 283.781 466.648 285.162 466.847 286.604C467.088 288.137 466.953 289.699 466.45 291.182C465.949 292.29 465.203 293.298 464.257 294.149Z" fill="#00FF00"/>
<path d="M477.39 282.154C474.807 285.504 471.817 288.595 468.472 291.369C465.086 294.14 461.444 296.656 457.585 298.891" stroke="#00FF00" stroke-miterlimit="10"/>
<path d="M455.035 316.446C452.008 316.12 449.179 314.945 446.962 313.094C444.914 311.307 443.949 309.064 445.099 306.833C445.49 306.112 445.983 305.437 446.565 304.824C450.212 306.425 455.246 305.268 458.391 307.511C460.095 308.749 463.332 311.575 462.949 313.631C462.42 316.341 458.232 316.796 455.035 316.446Z" fill="#00FF00"/>
<path d="M440.514 306.682C437.343 303.937 435.375 300.842 437.304 295.995C438.136 293.962 440.144 292.058 442.456 292.561C443.238 292.79 443.941 293.193 444.496 293.73C445.051 294.268 445.441 294.923 445.627 295.632C446.005 297.069 446.005 298.564 445.627 300.001C445.271 301.547 444.58 303.019 443.593 304.334C442.735 305.274 441.692 306.069 440.514 306.682Z" fill="#00FF00"/>
<path d="M457.585 298.891C449.735 303.318 441.394 307.024 432.693 309.952" stroke="#00FF00" stroke-miterlimit="10"/>
<path d="M427.553 326.712C424.793 325.92 422.325 324.488 420.405 322.566C418.555 320.674 417.604 318.42 418.925 316.235C419.381 315.541 419.941 314.904 420.59 314.343C424.078 316.2 429.099 315.792 431.702 318.525C433.102 320.02 435.599 323.36 434.925 325.276C434.027 327.822 430.341 327.471 427.553 326.712Z" fill="#00FF00"/>
<path d="M414.288 315.943C411.169 313.175 408.765 310.174 411.645 305.093C412.887 302.955 415.754 301.005 418.251 301.671C419.045 301.923 419.737 302.377 420.24 302.975C420.743 303.573 421.035 304.29 421.079 305.034C421.169 306.535 420.884 308.034 420.246 309.426C419.607 310.955 418.693 312.383 417.538 313.654C416.588 314.554 415.493 315.326 414.288 315.943Z" fill="#00FF00"/>
<path d="M432.692 309.952C424.025 313 414.909 315.546 406.439 319.693" stroke="#00FF00" stroke-miterlimit="10"/>
<path d="M407.113 336.255C404.469 335.951 401.893 335.289 399.476 334.293C396.993 333.242 394.826 331.676 394.984 329.2C395.07 328.393 395.307 327.604 395.685 326.864C397.738 326.999 399.801 326.999 401.855 326.864C403.796 326.709 405.734 327.191 407.298 328.219C408.989 329.446 411.909 332.436 412.028 334.246C412.253 336.57 409.584 336.453 407.113 336.255Z" fill="#00FF00"/>
<path d="M390.677 330.87C388.589 330.531 386.62 329.763 384.929 328.628C383.41 327.46 382.406 325.416 382.829 322.134C383.146 319.354 385.788 315.838 388.92 315.418C389.798 315.283 390.702 315.435 391.462 315.845C392.223 316.256 392.789 316.897 393.055 317.649C393.559 319.163 393.725 320.75 393.544 322.321C393.423 324.031 393.104 325.725 392.593 327.378C392.086 328.595 391.444 329.765 390.677 330.87Z" fill="#00FF00"/>
<path d="M406.439 319.693C402.149 321.744 398.201 324.311 394.707 327.32C391.109 330.366 388.313 334.075 386.515 338.182" stroke="#00FF00" stroke-miterlimit="10"/>
<path d="M357.091 460.376C356.655 460.469 341.434 460.469 340.985 460.376C329.821 458.203 290.17 446.687 325.91 409.394H371.664C407.378 446.675 368.269 458.203 357.091 460.376Z" fill="white" stroke="#263238" stroke-miterlimit="10"/>
<path d="M371.651 409.639C371.651 410.246 370.62 410.807 368.81 411.309C364.847 410.223 357.342 409.499 348.648 409.499C339.954 409.499 332.41 410.223 328.499 411.309C326.689 410.819 325.659 410.246 325.659 409.639C325.659 407.723 335.951 406.135 348.648 406.135C361.345 406.135 371.651 407.723 371.651 409.639Z" fill="white" stroke="#263238" stroke-miterlimit="10"/>
<path d="M368.797 411.309C364.833 412.384 357.329 413.108 348.635 413.108C339.941 413.108 332.397 412.384 328.486 411.309C332.45 410.223 339.954 409.499 348.635 409.499C357.316 409.499 364.9 410.223 368.797 411.309Z" fill="#263238" stroke="#263238" stroke-miterlimit="10"/>
<path d="M366.274 420.198C367.872 419.906 369.458 419.579 371.004 419.217Z" fill="white"/>
<path d="M366.274 420.198C367.872 419.906 369.458 419.579 371.004 419.217" stroke="#263238" stroke-miterlimit="10"/>
<path d="M326.808 418.621C337.722 422.125 350.524 422.463 362.389 420.816Z" fill="white"/>
<path d="M326.808 418.621C337.722 422.125 350.524 422.463 362.389 420.816" stroke="#263238" stroke-miterlimit="10"/>
<path d="M382.01 352.326C376.791 352.712 369.564 349.815 369.788 345.318C369.853 344.601 370.022 343.895 370.29 343.216C374.069 343.999 378.046 342.153 381.613 343.683C383.569 344.547 387.44 346.603 387.836 348.542C388.312 351.123 384.85 352.116 382.01 352.326Z" fill="#00FF00"/>
<path d="M365.758 346.089C361.927 344.267 358.835 341.931 358.769 336.956C358.769 334.865 359.932 332.646 362.165 332.669C362.979 332.738 363.764 332.977 364.453 333.367C365.142 333.757 365.716 334.286 366.128 334.912C366.968 336.138 367.508 337.507 367.714 338.929C367.966 340.386 367.908 341.872 367.542 343.309C367.154 344.329 366.549 345.272 365.758 346.089Z" fill="#00FF00"/>
<path d="M377.834 335.951C372.549 341.23 366.406 345.891 360.5 350.913" stroke="#00FF00" stroke-miterlimit="10"/>
<path d="M365.454 366.564C362.778 366.604 360.12 366.158 357.646 365.255C355.175 364.298 352.876 362.849 352.652 360.584C352.593 359.857 352.669 359.127 352.876 358.423C356.708 358.761 360.486 356.939 363.961 358.656C365.864 359.579 369.484 361.892 370.026 363.655C370.726 366.015 367.965 366.494 365.454 366.564Z" fill="#00FF00"/>
<path d="M348.833 362.126C346.757 361.778 344.785 361.05 343.046 359.988C341.408 358.82 340.272 357.15 340.139 354.148C340.007 351.649 341.381 348.822 343.984 348.379C344.82 348.293 345.665 348.425 346.417 348.76C347.168 349.094 347.792 349.615 348.212 350.259C349.058 351.527 349.618 352.927 349.864 354.382C350.179 355.888 350.25 357.425 350.075 358.949C349.835 360.055 349.417 361.125 348.833 362.126Z" fill="#00FF00"/>
<path d="M360.5 350.913C357.509 353.429 354.682 356.092 352.031 358.89C350.679 360.323 349.443 361.837 348.331 363.422C347.803 364.239 347.234 365.022 346.759 365.863L345.438 368.386" stroke="#00FF00" stroke-miterlimit="10"/>
<path d="M357.606 380.323C355.236 381.411 352.654 382.093 349.996 382.332C347.261 382.565 344.513 382.121 343.125 380.217C342.702 379.597 342.386 378.923 342.187 378.22C343.9 377.488 345.52 376.6 347.023 375.569C348.498 374.592 350.308 374.093 352.15 374.156C354.29 374.284 358.663 375.207 360.077 376.433C361.028 377.262 360.962 377.952 360.368 378.571C359.585 379.308 358.647 379.903 357.606 380.323Z" fill="#00FF00"/>
<path d="M340.483 383.056C336.189 383.733 332.04 384.025 328.592 379.481C327.178 377.554 326.861 374.354 329.015 372.812C329.697 372.369 330.518 372.124 331.365 372.109C332.212 372.095 333.043 372.312 333.745 372.731C335.154 373.546 336.374 374.593 337.338 375.814C338.393 377.03 339.26 378.366 339.915 379.785C340.289 380.844 340.48 381.946 340.483 383.056Z" fill="#00FF00"/>
<path d="M345.385 368.386C343.747 371.789 342.503 375.331 341.672 378.956C340.828 382.547 340.298 386.19 340.087 389.853" stroke="#00FF00" stroke-miterlimit="10"/>
<path d="M355.889 398.239C353.998 399.963 351.708 401.305 349.177 402.175C346.534 403.04 343.892 403.192 341.91 401.685C341.31 401.19 340.802 400.614 340.404 399.98C343.482 397.912 344.737 394.233 348.622 393.392C350.723 392.913 355.149 392.423 356.919 393.334C359.218 394.502 357.619 396.557 355.889 398.239Z" fill="#00FF00"/>
<path d="M340.153 405.014C336.255 406.602 332.225 407.7 327.693 404.231C325.751 402.771 324.588 399.945 326.081 398.111C326.635 397.555 327.357 397.15 328.162 396.943C328.967 396.736 329.822 396.736 330.626 396.943C332.226 397.344 333.727 398.006 335.053 398.894C336.451 399.774 337.689 400.837 338.726 402.047C339.394 402.955 339.877 403.959 340.153 405.014Z" fill="#00FF00"/>
<path d="M340.086 389.853C339.642 397.153 340.147 404.473 341.593 411.671" stroke="#00FF00" stroke-miterlimit="10"/>
<path d="M389.594 388.569C384.375 389.994 376.553 388.393 376.024 383.745C375.964 382.994 376.017 382.24 376.183 381.502C380.147 381.584 383.806 378.933 387.691 379.785C389.805 380.288 394.086 381.631 394.826 383.523C395.79 386.081 392.447 387.844 389.594 388.569Z" fill="#00FF00"/>
<path d="M372.1 385.251C367.925 384.083 364.424 382.261 363.499 377.251C363.103 375.136 363.882 372.684 366.141 372.287C366.952 372.215 367.77 372.319 368.525 372.59C369.28 372.861 369.95 373.29 370.475 373.84C371.55 374.946 372.331 376.251 372.761 377.659C373.272 379.105 373.474 380.622 373.356 382.133C373.156 383.231 372.731 384.288 372.1 385.251Z" fill="#00FF00"/>
<path d="M382.459 372.661C378.191 379.096 372.748 384.995 367.568 391.115" stroke="#00FF00" stroke-miterlimit="10"/>
<path d="M374.531 406.625C371.823 407.153 369.012 407.109 366.326 406.497C363.618 405.855 361.319 404.558 360.856 402.245C360.724 401.499 360.724 400.738 360.856 399.991C364.82 399.839 368.414 397.34 372.193 398.508C374.254 399.139 378.284 400.844 379.05 402.631C380.041 404.967 377.121 406.053 374.531 406.625Z" fill="#00FF00"/>
<path d="M357.091 404.173C352.784 403.472 348.833 402.374 347.631 396.908C347.391 395.7 347.523 394.458 348.014 393.311C348.229 392.763 348.577 392.265 349.034 391.849C349.49 391.433 350.044 391.111 350.657 390.905C351.471 390.726 352.326 390.76 353.119 391.002C353.911 391.245 354.607 391.686 355.122 392.271C356.171 393.434 356.932 394.779 357.355 396.219C357.865 397.715 358.115 399.27 358.095 400.832C357.962 401.986 357.623 403.113 357.091 404.173Z" fill="#00FF00"/>
<path d="M367.568 391.091C362.139 397.166 357.474 403.745 353.656 410.713" stroke="#00FF00" stroke-miterlimit="10"/>
<path d="M479.689 257.381C479.113 254.643 479.717 251.815 481.38 249.45C481.578 249.228 484.498 246.087 485.489 246.168C487.689 247.142 489.453 248.743 490.497 250.712C491.734 252.771 492.253 255.108 491.99 257.428C491.686 259.6 489.242 263.746 485.939 263.922C482.635 264.097 480.125 259.378 479.689 257.381Z" fill="#00FF00"/>
<path d="M399.12 48.4177H145.441V346.498H399.12V48.4177Z" fill="white"/>
<path d="M399.186 347.082H145.507C145.332 347.082 145.164 347.02 145.04 346.91C144.916 346.801 144.846 346.652 144.846 346.498V48.4172C144.846 48.2624 144.916 48.1138 145.04 48.0043C145.164 47.8948 145.332 47.8333 145.507 47.8333H399.186C399.361 47.8333 399.529 47.8948 399.653 48.0043C399.777 48.1138 399.846 48.2624 399.846 48.4172V346.498C399.846 346.652 399.777 346.801 399.653 346.91C399.529 347.02 399.361 347.082 399.186 347.082ZM146.168 345.914H398.525V49.0012H146.168V345.914Z" fill="#263238"/>
<path d="M366.313 202.007H173.227V209.015H366.313V202.007Z" fill="#263238"/>
<path d="M366.313 113.743H209.019V120.751H366.313V113.743Z" fill="#263238"/>
<path d="M366.313 157.881H173.227V164.888H366.313V157.881Z" fill="#263238"/>
<path d="M316.701 290.26C314.243 292.596 311.733 294.932 309.169 297.268H173.253V290.26H316.701Z" fill="#263238"/>
<path d="M354.633 246.133C352.942 248.469 351.211 250.805 349.415 253.141H173.253V246.133H354.633Z" fill="#263238"/>
<path d="M241.509 338.45C241.509 338.45 230.225 343.297 198.621 345.914H146.102" stroke="#263238" stroke-linecap="round" stroke-linejoin="round"/>
<path d="M393.623 176.183C395.576 173.592 396.758 170.607 397.059 167.505C397.455 163.604 397.746 159.061 397.838 156.292L398.34 141.004V173.847L393.623 176.183Z" fill="#263238"/>
<path d="M396.86 172.492C396.86 173.917 382.089 208.349 354.581 246.075C352.889 248.411 351.159 250.747 349.362 253.083C339.504 266.15 328.57 278.556 316.648 290.201C314.19 292.537 311.68 294.873 309.117 297.209C289.76 314.565 267.458 329.34 242.473 337.808C243.9 337.165 265.661 327.46 270.404 297.209C270.757 294.99 271.008 292.654 271.157 290.201C271.792 279.969 270.55 267.706 266.348 253.083C265.696 250.809 264.969 248.473 264.168 246.075C258.064 227.842 247.573 206.235 230.859 180.668L226.552 172.375L254.695 179.383C380.385 205.184 396.794 172.375 396.794 172.375C396.794 172.375 396.86 172.469 396.86 172.492Z" fill="white" stroke="#263238" stroke-linecap="round" stroke-linejoin="round"/>
<path d="M288.716 276.431C288.803 278.499 288.751 280.57 288.558 282.633Z" fill="white"/>
<path d="M288.716 276.431C288.803 278.499 288.751 280.57 288.558 282.633" stroke="#263238" stroke-linecap="round" stroke-linejoin="round"/>
<path d="M258.487 196.903C276.746 217.81 285.955 253.141 288.36 269.902Z" fill="white"/>
<path d="M258.487 196.903C276.746 217.81 285.955 253.141 288.36 269.902" stroke="#263238" stroke-linecap="round" stroke-linejoin="round"/>
<path d="M176.054 80.911C174.274 80.9607 172.501 80.6936 170.84 80.1258C169.18 79.5579 167.665 78.7008 166.386 77.6054C165.107 76.5099 164.09 75.1985 163.396 73.7489C162.701 72.2993 162.344 70.7412 162.344 69.167C162.344 67.5928 162.701 66.0347 163.396 64.5851C164.09 63.1355 165.107 61.8241 166.386 60.7286C167.665 59.6332 169.18 58.7761 170.84 58.2082C172.501 57.6404 174.274 57.3733 176.054 57.423C176.58 57.423 177.084 57.6075 177.456 57.9361C177.827 58.2647 178.036 58.7103 178.036 59.1749C178.036 59.6396 177.827 60.0852 177.456 60.4138C177.084 60.7423 176.58 60.9269 176.054 60.9269C174.206 60.913 172.395 61.3848 170.85 62.2824C169.306 63.18 168.098 64.4629 167.38 65.9684C166.662 67.4739 166.466 69.134 166.817 70.7382C167.168 72.3423 168.05 73.8181 169.351 74.9784C170.652 76.1386 172.314 76.9309 174.126 77.2548C175.937 77.5787 177.817 77.4196 179.526 76.7976C181.235 76.1756 182.697 75.1187 183.725 73.7612C184.754 72.4037 185.303 70.8067 185.303 69.1728C185.303 68.7082 185.512 68.2626 185.883 67.934C186.255 67.6055 186.759 67.4209 187.285 67.4209C187.81 67.4209 188.315 67.6055 188.686 67.934C189.058 68.2626 189.267 68.7082 189.267 69.1728C189.263 72.275 187.872 75.25 185.397 77.449C182.922 79.648 179.563 80.8925 176.054 80.911Z" fill="#263238"/>
<path d="M175.737 76.0637C163.595 76.0637 162.934 52.8676 162.921 48.219V48.0789C162.921 43.407 163.542 20.0474 175.737 20.0474C187.932 20.0474 188.778 45.2057 188.844 48.0789L178.274 48.2541C178.253 42.8482 177.363 37.4725 175.631 32.2878C174.076 37.4199 173.347 42.7201 173.465 48.0322V48.1723C173.347 53.5119 174.104 58.8385 175.711 63.9868C175.83 63.6481 175.948 63.2743 176.081 62.8188L176.913 60.2843L184.286 62.1881C184.651 62.282 184.992 62.4388 185.289 62.6494C185.586 62.86 185.833 63.1203 186.016 63.4154C186.198 63.7105 186.314 64.0347 186.355 64.3692C186.396 64.7037 186.361 65.0421 186.254 65.365C184.114 72.4546 180.56 76.0637 175.737 76.0637Z" fill="#BFBFBF" stroke="#263238" stroke-linecap="round" stroke-linejoin="round"/>
<path d="M187.351 70.9246C186.825 70.9246 186.321 70.74 185.949 70.4114C185.578 70.0829 185.369 69.6373 185.369 69.1726C185.369 66.9977 184.397 64.9109 182.665 63.3665C180.933 61.8221 178.58 60.9452 176.12 60.9267C175.595 60.9267 175.091 60.7421 174.719 60.4135C174.347 60.085 174.138 59.6394 174.138 59.1747C174.138 58.71 174.347 58.2644 174.719 57.9359C175.091 57.6073 175.595 57.4227 176.12 57.4227C179.631 57.4443 182.989 58.6914 185.464 60.8922C187.939 63.0931 189.329 66.0694 189.333 69.1726C189.333 69.6373 189.124 70.0829 188.752 70.4114C188.381 70.74 187.876 70.9246 187.351 70.9246Z" fill="#263238"/>
<path d="M238.681 80.9108C235.23 80.8146 231.957 79.5351 229.555 77.3432C227.152 75.1513 225.808 72.2189 225.808 69.1668C225.808 66.1146 227.152 63.1823 229.555 60.9904C231.957 58.7984 235.23 57.5189 238.681 57.4227C239.207 57.4227 239.711 57.6073 240.083 57.9359C240.454 58.2644 240.663 58.71 240.663 59.1747C240.663 59.6394 240.454 60.085 240.083 60.4135C239.711 60.7421 239.207 60.9267 238.681 60.9267C236.836 60.9267 235.033 61.4103 233.499 62.3164C231.965 63.2224 230.769 64.5103 230.063 66.017C229.357 67.5238 229.173 69.1818 229.532 70.7813C229.892 72.3809 230.781 73.8502 232.085 75.0034C233.39 76.1566 235.052 76.9419 236.861 77.2601C238.671 77.5783 240.546 77.415 242.251 76.7909C243.955 76.1667 245.412 75.1098 246.437 73.7538C247.462 72.3978 248.009 70.8035 248.009 69.1726C248.009 68.708 248.218 68.2623 248.59 67.9338C248.961 67.6052 249.465 67.4206 249.991 67.4206C250.517 67.4206 251.021 67.6052 251.392 67.9338C251.764 68.2623 251.973 68.708 251.973 69.1726C251.966 72.2859 250.563 75.2697 248.071 77.4701C245.58 79.6704 242.203 80.9077 238.681 80.9108Z" fill="#263238"/>
<path d="M238.377 76.0637C226.235 76.0637 225.561 52.8676 225.561 48.219V48.0789C225.561 43.407 226.169 20.0474 238.377 20.0474C250.586 20.0474 251.418 45.2057 251.484 48.0789L240.914 48.2541C240.894 42.8482 240.004 37.4722 238.272 32.2878C236.722 37.4207 235.997 42.7207 236.118 48.0322V48.1723C236.001 53.535 236.758 58.8846 238.364 64.0569C238.496 63.7181 238.615 63.3444 238.747 62.8889L239.58 60.3544L246.952 62.2582C247.318 62.3521 247.659 62.5088 247.955 62.7195C248.252 62.9301 248.499 63.1904 248.682 63.4855C248.865 63.7806 248.98 64.1047 249.021 64.4393C249.062 64.7738 249.028 65.1122 248.921 65.4351C246.754 72.4546 243.2 76.0637 238.377 76.0637Z" fill="#BFBFBF" stroke="#263238" stroke-linecap="round" stroke-linejoin="round"/>
<path d="M249.991 70.9246C249.465 70.9246 248.961 70.74 248.59 70.4114C248.218 70.0829 248.009 69.6373 248.009 69.1726C248.006 66.9866 247.022 64.891 245.273 63.3453C243.525 61.7995 241.154 60.9298 238.681 60.9267C238.156 60.9267 237.651 60.7421 237.28 60.4135C236.908 60.085 236.699 59.6394 236.699 59.1747C236.699 58.71 236.908 58.2644 237.28 57.9359C237.651 57.6073 238.156 57.4227 238.681 57.4227C242.205 57.4258 245.584 58.6647 248.076 60.8676C250.568 63.0705 251.969 66.0573 251.973 69.1726C251.973 69.6373 251.764 70.0829 251.392 70.4114C251.021 70.74 250.517 70.9246 249.991 70.9246Z" fill="#263238"/>
<path d="M301.321 80.9108C297.87 80.8146 294.597 79.5351 292.195 77.3432C289.792 75.1513 288.449 72.2189 288.449 69.1668C288.449 66.1146 289.792 63.1823 292.195 60.9904C294.597 58.7984 297.87 57.5189 301.321 57.4227C301.847 57.4227 302.351 57.6073 302.723 57.9359C303.094 58.2644 303.303 58.71 303.303 59.1747C303.303 59.6394 303.094 60.085 302.723 60.4135C302.351 60.7421 301.847 60.9267 301.321 60.9267C299.476 60.9267 297.673 61.4103 296.139 62.3164C294.605 63.2224 293.409 64.5103 292.703 66.017C291.997 67.5238 291.813 69.1818 292.173 70.7813C292.532 72.3809 293.421 73.8502 294.725 75.0034C296.03 76.1566 297.692 76.9419 299.502 77.2601C301.311 77.5783 303.187 77.415 304.891 76.7909C306.595 76.1667 308.052 75.1098 309.077 73.7538C310.102 72.3978 310.649 70.8035 310.649 69.1726C310.649 68.708 310.858 68.2623 311.23 67.9338C311.601 67.6052 312.106 67.4206 312.631 67.4206C313.157 67.4206 313.661 67.6052 314.033 67.9338C314.404 68.2623 314.613 68.708 314.613 69.1726C314.606 72.2859 313.203 75.2697 310.711 77.4701C308.22 79.6704 304.843 80.9077 301.321 80.9108Z" fill="#263238"/>
<path d="M301.004 76.0637C288.862 76.0637 288.201 52.8676 288.188 48.219V48.0789C288.188 43.407 288.809 20.0474 301.004 20.0474C313.199 20.0474 314.058 45.2057 314.111 48.0789L303.541 48.2541C303.52 42.8482 302.63 37.4725 300.898 32.2878C299.352 37.4367 298.635 42.7529 298.771 48.0789V48.219C298.654 53.5587 299.411 58.8852 301.017 64.0335C301.136 63.6948 301.268 63.321 301.387 62.8655L302.233 60.331L309.592 62.2348C309.958 62.3287 310.299 62.4855 310.596 62.6961C310.892 62.9067 311.139 63.167 311.322 63.4621C311.505 63.7573 311.62 64.0814 311.661 64.4159C311.702 64.7505 311.668 65.0889 311.561 65.4117C309.341 72.4546 305.84 76.0637 301.004 76.0637Z" fill="#BFBFBF" stroke="#263238" stroke-linecap="round" stroke-linejoin="round"/>
<path d="M312.631 70.9246C312.106 70.9246 311.601 70.74 311.23 70.4114C310.858 70.0829 310.649 69.6373 310.649 69.1726C310.646 66.9866 309.662 64.891 307.913 63.3453C306.165 61.7995 303.794 60.9298 301.321 60.9267C300.796 60.9267 300.292 60.7421 299.92 60.4135C299.548 60.085 299.339 59.6394 299.339 59.1747C299.339 58.71 299.548 58.2644 299.92 57.9359C300.292 57.6073 300.796 57.4227 301.321 57.4227C304.848 57.4227 308.23 58.6603 310.725 60.8635C313.219 63.0667 314.623 66.0553 314.626 69.1726C314.623 69.6383 314.411 70.0839 314.037 70.4122C313.663 70.7404 313.158 70.9246 312.631 70.9246Z" fill="#263238"/>
<path d="M363.961 80.911C362.181 80.9607 360.408 80.6936 358.748 80.1258C357.087 79.5579 355.572 78.7008 354.293 77.6054C353.014 76.5099 351.997 75.1985 351.303 73.7489C350.608 72.2993 350.251 70.7412 350.251 69.167C350.251 67.5928 350.608 66.0347 351.303 64.5851C351.997 63.1355 353.014 61.8241 354.293 60.7286C355.572 59.6332 357.087 58.7761 358.748 58.2082C360.408 57.6404 362.181 57.3733 363.961 57.423C364.487 57.423 364.991 57.6075 365.363 57.9361C365.734 58.2647 365.943 58.7103 365.943 59.1749C365.943 59.6396 365.734 60.0852 365.363 60.4138C364.991 60.7423 364.487 60.9269 363.961 60.9269C362.116 60.9246 360.311 61.4062 358.775 62.3109C357.24 63.2156 356.042 64.5026 355.334 66.0091C354.626 67.5157 354.439 69.174 354.798 70.7744C355.156 72.3747 356.044 73.8451 357.348 74.9995C358.652 76.1538 360.314 76.9403 362.123 77.2595C363.933 77.5786 365.809 77.416 367.515 76.7922C369.22 76.1684 370.678 75.1115 371.703 73.7552C372.729 72.399 373.276 70.8042 373.276 69.1728C373.276 68.7082 373.485 68.2626 373.857 67.934C374.228 67.6055 374.732 67.4209 375.258 67.4209C375.784 67.4209 376.288 67.6055 376.659 67.934C377.031 68.2626 377.24 68.7082 377.24 69.1728C377.236 72.285 375.836 75.2689 373.347 77.4696C370.857 79.6703 367.482 80.9079 363.961 80.911Z" fill="#263238"/>
<path d="M363.644 76.0637C351.502 76.0637 350.841 52.8676 350.828 48.219V48.0789C350.828 43.407 351.449 20.0474 363.644 20.0474C375.839 20.0474 376.725 45.2524 376.725 48.1256L366.155 48.3008C366.127 42.8954 365.237 37.5204 363.512 32.3345C361.95 37.4653 361.22 42.7665 361.345 48.0789V48.219C361.247 53.5678 362.016 58.9014 363.631 64.0569C363.763 63.7181 363.882 63.3444 364.014 62.8889L364.847 60.3544L372.219 62.2582C372.585 62.3521 372.926 62.5088 373.223 62.7195C373.519 62.9301 373.766 63.1904 373.949 63.4855C374.132 63.7806 374.247 64.1047 374.288 64.4393C374.329 64.7738 374.295 65.1122 374.188 65.4351C372.021 72.4546 368.467 76.0637 363.644 76.0637Z" fill="#BFBFBF" stroke="#263238" stroke-linecap="round" stroke-linejoin="round"/>
<path d="M375.258 70.9246C374.732 70.9246 374.228 70.74 373.857 70.4114C373.485 70.0829 373.276 69.6373 373.276 69.1726C373.276 66.9877 372.295 64.8921 370.549 63.346C368.802 61.7999 366.433 60.9298 363.961 60.9267C363.436 60.9267 362.932 60.7421 362.56 60.4135C362.188 60.085 361.979 59.6394 361.979 59.1747C361.979 58.71 362.188 58.2644 362.56 57.9359C362.932 57.6073 363.436 57.4227 363.961 57.4227C367.483 57.4289 370.859 58.6692 373.348 60.8717C375.837 63.0743 377.236 66.0593 377.24 69.1726C377.24 69.6373 377.031 70.0829 376.659 70.4114C376.288 70.74 375.784 70.9246 375.258 70.9246Z" fill="#263238"/>
<path d="M432.907 343.115C439.044 319.522 422.383 295.998 395.694 290.572C369.005 285.147 342.394 299.875 336.257 323.469C330.12 347.062 346.78 370.586 373.47 376.011C400.159 381.437 426.77 366.708 432.907 343.115Z" fill="#00FF00" stroke="#263238" stroke-miterlimit="10"/>
<path d="M413.521 333.311C413.523 333.848 413.405 334.381 413.173 334.877C412.941 335.374 412.6 335.825 412.171 336.205C411.741 336.585 411.23 336.886 410.669 337.091C410.107 337.296 409.505 337.401 408.897 337.399H389.224V354.802C389.224 355.886 388.736 356.926 387.869 357.693C387.002 358.459 385.826 358.89 384.599 358.89C383.373 358.89 382.197 358.459 381.329 357.693C380.462 356.926 379.975 355.886 379.975 354.802V337.364H360.302C359.075 337.364 357.899 336.933 357.032 336.167C356.164 335.4 355.677 334.36 355.677 333.276C355.677 332.192 356.164 331.152 357.032 330.386C357.899 329.619 359.075 329.188 360.302 329.188H379.975V311.832C379.975 310.748 380.462 309.708 381.329 308.941C382.197 308.175 383.373 307.744 384.599 307.744C385.826 307.744 387.002 308.175 387.869 308.941C388.736 309.708 389.224 310.748 389.224 311.832V329.188H408.897C409.508 329.188 410.112 329.295 410.676 329.503C411.239 329.71 411.751 330.015 412.181 330.398C412.611 330.781 412.951 331.236 413.181 331.736C413.411 332.236 413.527 332.771 413.521 333.311Z" fill="white"/>
<path d="M146.828 189.965C146.828 189.965 150.898 210.638 150.118 213.208C149.339 215.028 147.958 216.599 146.155 217.716L155.271 236.871V221.886C155.271 221.886 157.781 187.197 158.085 171.662C158.214 163.951 157.875 156.239 157.068 148.56L152.748 149.179C152.748 149.179 147.793 181.637 146.828 189.965Z" fill="white" stroke="#263238" stroke-linecap="round" stroke-linejoin="round"/>
<path d="M127.776 441.221L125.239 424.729L108.393 423.561L110.362 441.583C112.841 443.358 115.954 444.297 119.144 444.23C122.334 444.164 125.394 443.097 127.776 441.221Z" fill="white" stroke="#263238" stroke-linecap="round" stroke-linejoin="round"/>
<path d="M109.265 439.492C108.71 443.557 108.169 447.832 109.49 451.721C110.811 455.61 114.682 458.892 118.488 457.935C119.36 457.724 120.192 457.292 121.13 457.152C122.821 456.895 124.486 457.689 126.072 458.378C135.69 462.571 160.767 460.773 162.749 459.85C163.321 459.546 163.786 459.107 164.093 458.584C164.399 458.06 164.536 457.471 164.486 456.883C164.437 456.294 164.204 455.73 163.814 455.251C163.423 454.773 162.89 454.4 162.274 454.174C150.766 449.35 151.505 450.565 132.506 441.046C129.097 439.34 127.076 440.158 125.358 441.723C124.231 442.699 122.862 443.428 121.359 443.852C119.857 444.277 118.263 444.385 116.704 444.169C115.146 443.952 113.667 443.416 112.384 442.604C111.102 441.792 110.052 440.727 109.318 439.492H109.265Z" fill="#263238"/>
<path d="M126.666 403.939C118.065 413.388 107.297 425.488 107.297 425.488L99.5278 410.702C99.5278 410.702 117.576 391.757 126.838 371.773C126.838 375.685 127.195 379.949 127.314 382.39C127.631 389.771 126.798 396.592 126.666 403.939Z" fill="#263238"/>
<path d="M108.406 443.965C108.367 444.59 108.087 445.183 107.614 445.647C106.134 446.815 104.496 444.701 103.254 443.311C99.4364 438.825 95.9964 434.098 92.9612 429.167L91.9966 421.564L89.1692 422.603H88.8124L87.9933 421.33C81.7306 411.659 89.2088 409.779 97.1759 410.094C98.0876 410.094 99.9902 410.304 103.055 415.502C103.88 416.701 104.617 417.946 105.262 419.228C108.815 427.072 109.901 435.62 108.406 443.965Z" fill="#263238"/>
<path d="M157.596 244.941C157.301 240.745 157.257 236.539 157.464 232.339C157.551 229.064 156.781 225.816 155.213 222.847C153.645 219.879 151.323 217.272 148.427 215.228C148.427 215.228 141.504 223.404 121.725 223.404H120.734C111.925 223.216 103.19 221.934 94.7846 219.596C91.222 218.61 87.7279 217.44 84.3203 216.092C84.3203 216.092 84.7167 239.452 85.5491 261.164C86.2625 278.392 91.2833 355.771 94.4542 380.392C97.0967 400.902 104.945 421.154 105.883 429.903C106.332 434.026 116.863 432.741 121.896 431.152C128.503 429.062 128.965 427.824 128.965 427.824C129.401 421.47 127.485 410.304 127.644 403.985C145.666 384.129 173.702 352.711 174.495 347.864C180.613 310.208 158.257 248.842 157.596 244.941ZM140.354 341.884C139.892 344.43 133.907 357.768 127.142 372.333C127.142 365.886 130.366 359.17 131.317 348.763C133.127 328.744 128.529 306.716 129.177 290.633C132.836 304.461 141.2 337.107 140.354 341.837V341.884Z" fill="#263238"/>
<path d="M168.642 353.786C165.758 355.957 162.391 357.568 158.759 358.516" stroke="#BFBFBF" stroke-linecap="round" stroke-linejoin="round"/>
<path d="M172.685 350.013C172.117 350.677 171.509 351.312 170.862 351.917" stroke="#BFBFBF" stroke-linecap="round" stroke-linejoin="round"/>
<path d="M133.259 230.517C135.069 239.031 135.36 250.536 131.41 258.455C130.423 259.811 129.247 261.051 127.908 262.146" stroke="#BFBFBF" stroke-linecap="round" stroke-linejoin="round"/>
<path d="M102.051 229.606C100.981 233.694 99.0522 240.433 96.5418 243.996C94.1336 247.674 90.1771 250.361 85.5359 251.471" stroke="#BFBFBF" stroke-linecap="round" stroke-linejoin="round"/>
<path d="M126.442 238.226C127.829 252.032 127.763 265.428 129.256 288.636" stroke="#BFBFBF" stroke-linecap="round" stroke-linejoin="round"/>
<path d="M125.596 231.078C125.741 232.176 125.887 233.262 126.019 234.337" stroke="white" stroke-linecap="round" stroke-linejoin="round"/>
<path d="M140.42 338.112C141.321 343.798 143.141 349.34 145.824 354.569" stroke="#BFBFBF" stroke-linecap="round" stroke-linejoin="round"/>
<path d="M141.543 343.461C140.384 351.564 140.89 359.787 143.036 367.731" stroke="#BFBFBF" stroke-linecap="round" stroke-linejoin="round"/>
<path d="M89.6052 250.069C92.0231 281.908 95.3791 306.132 98.0612 330.309" stroke="#BFBFBF" stroke-linecap="round" stroke-linejoin="round"/>
<path d="M98.1537 338.707C98.1537 337.714 98.1537 336.698 98.1537 335.682" stroke="#BFBFBF" stroke-linecap="round" stroke-linejoin="round"/>
<path d="M113.612 432.11C111.749 427.006 98.8805 387.727 98.2727 371.434C97.8631 360.63 97.3742 352.933 97.9952 342.491" stroke="#BFBFBF" stroke-linecap="round" stroke-linejoin="round"/>
<path d="M128.212 368.654L127.75 403.822" stroke="#BFBFBF" stroke-linecap="round" stroke-linejoin="round"/>
<path d="M154.386 126.684C151.294 112.668 140.764 110.846 138.372 110.18C121.896 105.59 110.626 104.819 97.5988 109.865C82.3385 115.798 79.2732 116.009 74.5695 131.403C71.9271 139.824 77.1195 168.182 80.2113 180.528C82.682 190.351 82.061 215.801 86.8175 219.877C95.6434 227.434 108.156 226.348 120.258 224.456C130.736 222.809 148.229 220.613 152.206 211.888C152.774 210.638 152.721 205.359 152.523 197.744C151.889 174.7 153.633 161.478 153.368 146.726L156.909 145.278C156.909 145.278 157.213 139.45 154.386 126.684Z" fill="#00FF00"/>
<mask id="mask0_646_10147" style="mask-type:luminance" maskUnits="userSpaceOnUse" x="73" y="106" width="84" height="120">
<path d="M154.386 126.684C151.294 112.668 140.764 110.846 138.372 110.18C121.896 105.59 110.626 104.819 97.5988 109.865C82.3385 115.798 79.2732 116.009 74.5695 131.403C71.9271 139.824 77.1195 168.182 80.2113 180.528C82.682 190.351 82.061 215.801 86.8175 219.877C95.6434 227.434 108.156 226.348 120.258 224.456C130.736 222.809 148.229 220.613 152.206 211.888C152.774 210.638 152.721 205.359 152.523 197.744C151.889 174.7 153.633 161.478 153.368 146.726L156.909 145.278C156.909 145.278 157.213 139.45 154.386 126.684Z" fill="white"/>
</mask>
<g mask="url(#mask0_646_10147)">
<path opacity="0.2" d="M78.1237 156.654C78.5861 161.42 76.8024 166.535 79.141 170.822C79.7578 172.037 80.7688 173.064 82.046 173.771C83.3232 174.478 84.8091 174.833 86.3154 174.793C88.1915 174.618 89.962 173.625 91.8382 173.812C94.2428 174.034 95.8944 175.984 97.3081 177.725C100.265 181.755 104.052 185.257 108.473 188.05C113.005 190.678 118.765 191.997 123.958 190.619C122.586 192.604 121.04 194.49 119.333 196.261C122.214 195.314 128.582 191.215 134.158 191.191L151.955 191.086C153.104 187.793 150.435 184.184 146.894 182.724C143.353 181.264 139.258 181.451 135.386 181.918C131.515 182.385 127.604 183.086 123.746 182.619C118.579 181.757 113.925 179.303 110.613 175.692C107.343 172.1 104.563 168.18 102.329 164.013C101.364 165.624 98.6954 165.823 96.8986 164.947C95.2011 163.915 93.7841 162.563 92.7498 160.988C89.2221 156.584 82.4706 149.249 76.2475 148.058C75.2169 150.406 77.8726 154.061 78.1237 156.654Z" fill="black"/>
<path opacity="0.2" d="M132.836 180.049C139.733 177.713 144.358 171.663 146.353 165.356C147.542 161.548 150.224 151.095 147.238 147.836C145.005 153.314 143.459 158.99 141.041 164.433C139.799 167.213 138.478 169.957 137.078 172.609C136.364 173.905 134.29 179.547 132.836 180.049Z" fill="black"/>
<path opacity="0.2" d="M83.0123 197.826C87.4385 207.251 97.6385 213.944 108.71 216.829C119.783 219.714 132.678 219.609 144.027 217.716C129.401 225.04 110.005 225.752 94.3486 220.344C91.5343 219.375 88.7333 220.496 86.659 218.546C81.9025 214.084 82.1139 204.857 82.6952 198.69L80.0527 198.795" fill="black"/>
<path opacity="0.2" d="M112.119 124.091C112.622 124.758 113.368 125.253 114.233 125.493C114.738 125.537 115.247 125.465 115.71 125.282C116.174 125.1 116.575 124.814 116.876 124.453C117.475 123.718 117.997 122.936 118.435 122.117C119.695 120.138 121.647 118.572 123.997 117.655C125.274 120.369 127.203 122.804 129.652 124.792H130.471C131.75 122.071 132.113 119.082 131.515 116.184C131.402 116.556 131.201 116.902 130.926 117.2C130.65 117.498 130.306 117.741 129.916 117.912C129.296 116.728 128.476 115.633 127.485 114.665C126.984 114.186 126.368 113.812 125.682 113.569C124.997 113.327 124.259 113.222 123.522 113.264C122.899 113.352 122.296 113.53 121.738 113.789C118.065 115.366 115.475 118.461 113.533 121.58C110.803 119.807 107.957 118.177 105.011 116.698C107.191 119.197 109.728 121.615 112.119 124.091Z" fill="black"/>
</g>
<path d="M154.386 126.684C151.294 112.668 140.764 110.846 138.372 110.18C121.896 105.59 110.626 104.819 97.5988 109.865C82.3385 115.798 79.2732 116.009 74.5695 131.403C71.9271 139.824 77.1195 168.182 80.2113 180.528C82.682 190.351 82.061 215.801 86.8175 219.877C95.6434 227.434 108.156 226.348 120.258 224.456C130.736 222.809 148.229 220.613 152.206 211.888C152.774 210.638 152.721 205.359 152.523 197.744C151.889 174.7 153.633 161.478 153.368 146.726L156.909 145.278C156.909 145.278 157.213 139.45 154.386 126.684Z" stroke="#263238" stroke-miterlimit="10"/>
<path d="M127.327 107.073C129.31 107.07 131.245 106.531 132.87 105.526C134.495 104.522 135.733 103.101 136.417 101.455C138.32 96.783 139.205 81.9029 139.205 79.1932C139.205 76.4835 136.787 71.0174 136.298 67.9105C135.809 64.8037 133.656 58.3331 133.656 58.3331L127.247 52.8669L118.435 56.1606L105.962 57.6206C105.962 57.6206 103.637 75.5024 100.453 72.6292C97.2685 69.7559 87.6498 73.4467 88.2444 80.221C88.839 86.9953 98.6426 86.9019 98.6426 86.9019C98.6426 86.9019 101.074 89.0159 102.527 96.0588C103.436 100.439 103.467 104.926 102.62 109.315C104.191 111.023 106.228 112.349 108.54 113.166C110.852 113.984 113.362 114.266 115.832 113.987C124.275 113.041 125.081 107.972 125.081 107.972C125.081 107.972 125.186 107.12 127.327 107.073Z" fill="white"/>
<path d="M98.788 77.0094C96.9118 74.6735 90.1735 70.8892 88.5351 78.8081C86.8968 86.727 95.8416 86.2248 100.532 87.2059C104.047 92.38 111.102 101.07 117.048 103.791C120.734 105.485 125.345 107.447 129.692 107.003C134.039 106.559 135.77 104.258 136.615 100.626C137.786 95.7494 138.55 90.8033 138.901 85.8277C139.112 82.6625 139.733 78.4227 138.28 75.421C136.192 71.0878 136.642 66.0771 135.043 61.6505C133.444 57.2238 129.111 53.9769 125.094 51.1387" stroke="#263238" stroke-linecap="round" stroke-linejoin="round"/>
<path d="M114.894 74.1128C117.642 72.6061 120.033 71.9521 122.346 74.1128C122.993 74.1128 124.486 71.7769 124.486 71.7769C123.804 71.042 122.885 70.5085 121.851 70.2476C120.817 69.9867 119.717 70.0109 118.699 70.3169C114.669 71.1812 114.894 74.1128 114.894 74.1128Z" fill="#263238"/>
<path d="M121.011 91.6909C122.901 94.097 124.909 94.8328 128.45 94.5641" stroke="#263238" stroke-linecap="round" stroke-linejoin="round"/>
<path d="M119.65 77.8038C120.258 77.8038 120.853 78.6097 120.972 79.7193C121.09 80.8289 120.668 81.7633 120.047 81.7983C119.426 81.8334 118.844 80.9807 118.725 79.8828C118.606 78.7849 119.082 77.8506 119.65 77.8038Z" fill="#263238"/>
<path d="M133.048 76.2384C133.682 76.2384 134.276 77.0326 134.369 78.1422C134.461 79.2518 134.078 80.1979 133.444 80.2446C132.81 80.2913 132.229 79.427 132.123 78.3291C132.017 77.2312 132.427 76.2968 133.048 76.2384Z" fill="#263238"/>
<path d="M131.568 72.8283C131.568 72.8283 134.607 71.5201 135.822 72.4662C135.822 72.4662 136.694 69.7915 134.395 69.1725C133.822 68.9617 133.18 68.9465 132.594 69.1299C132.008 69.3133 131.52 69.6822 131.224 70.1653L131.317 73.0502L131.568 72.8283Z" fill="#263238"/>
<path d="M125.266 106.84C125.345 106.84 124.697 111.29 122.623 112.539C121.236 113.617 119.449 114.207 117.602 114.198C113.335 114.525 104.892 112.551 102.659 109.316C103.479 106.123 103.609 102.822 103.042 99.5865C102.659 95.3942 101.8 91.2465 100.479 87.2059C100.479 87.2059 111.538 105.391 125.266 106.84Z" stroke="#263238" stroke-linecap="round" stroke-linejoin="round"/>
<path d="M103.676 105.964C100.77 106.571 98.3915 106.711 97.7573 108.475C97.3345 109.643 98.299 110.671 99.3296 111.64C103.614 115.568 108.551 118.896 113.969 121.51C116.346 118.346 119.266 115.528 122.623 113.159C116.345 112.086 110.385 109.879 105.117 106.676L103.676 105.964Z" fill="white" stroke="#263238" stroke-linecap="round" stroke-linejoin="round"/>
<path d="M125.345 107.19C126.196 107.208 127.03 107.402 127.781 107.757C128.531 108.112 129.177 108.618 129.665 109.234C130.907 110.484 131.911 115.611 130.643 118.87C127.816 115.973 126.072 111.593 121.989 112.726C125.186 111.839 125.345 107.19 125.345 107.19Z" fill="white" stroke="#263238" stroke-linecap="round" stroke-linejoin="round"/>
<path d="M103.227 90.92C103.227 90.92 108.592 108.37 114.682 110.028C116.473 110.474 118.371 110.454 120.149 109.972C121.928 109.489 123.511 108.564 124.711 107.307C113.467 104.06 103.227 90.92 103.227 90.92Z" fill="#263238"/>
<path d="M108.314 70.831C104.601 72.8282 102.038 78.8083 104.707 81.9385C107.376 85.0687 104.628 86.9258 103.386 87.9886C102.439 86.3198 101.614 84.5994 100.915 82.8378C100.109 80.7588 100.188 78.9368 98.8671 77.0797C98.1405 76.0519 94.7845 74.405 93.45 74.0897C91.4814 73.6225 89.4863 75.5029 88.8521 77.2198C88.399 78.9879 88.4626 80.8289 89.0371 82.5692C86.3946 80.058 86.1832 79.3572 85.919 75.9701C85.9483 74.1212 85.8513 72.2724 85.6283 70.4339C85.2055 68.5184 84.1089 66.7431 83.8182 64.8159C83.3161 61.4171 85.364 58.1818 87.3459 55.2385C89.0775 52.3155 91.3405 49.6639 94.0446 47.3896C96.5578 45.6443 99.3911 44.2932 102.421 43.3951C109.186 41.1409 116.506 39.716 123.654 40.6737C130.802 41.6315 137.765 45.3457 140.83 51.0688C142.002 52.9904 142.354 55.2207 141.821 57.3525C141.476 58.4262 140.814 59.3995 139.903 60.1727C138.993 60.946 137.866 61.4912 136.639 61.7527C135.411 62.0142 134.127 61.9824 132.918 61.6608C131.709 61.3391 130.618 60.739 129.758 59.9221C131.229 60.2477 132.783 60.1158 134.158 59.5483C134.835 59.2542 135.41 58.8037 135.822 58.2444C136.233 57.6852 136.466 57.0381 136.496 56.3714C136.467 55.9317 136.331 55.5027 136.097 55.1139C135.863 54.7252 135.536 54.3859 135.139 54.1195C134.742 53.8531 134.285 53.6659 133.798 53.5707C133.312 53.4755 132.808 53.4747 132.321 53.5682C131.854 53.7167 131.432 53.9583 131.088 54.2744C130.744 54.5905 130.488 54.9726 130.338 55.3908C130.188 55.809 130.15 56.252 130.226 56.6855C130.302 57.1189 130.49 57.531 130.775 57.8898L128.489 56.8736L128.238 58.2168L125.596 56.5699L125.398 57.7379C124.182 57.3058 115.647 57.7379 112.727 58.0183C111.263 58.1443 109.816 58.3946 108.407 58.7658C106.821 59.1862 106.372 59.3264 106.081 60.798C105.262 65.0378 104.245 68.46 108.314 70.831Z" fill="#263238"/>
<path d="M109.331 49.9241C109.084 50.1242 108.891 50.3719 108.769 50.6481C108.647 50.9244 108.598 51.2217 108.626 51.5173C108.654 51.8129 108.758 52.0988 108.931 52.3532C109.104 52.6075 109.34 52.8233 109.622 52.9842" stroke="#BFBFBF" stroke-linecap="round" stroke-linejoin="round"/>
<path d="M112.012 50.4382C111.846 50.6553 111.757 50.9118 111.757 51.1744C111.757 51.437 111.846 51.6935 112.012 51.9106" stroke="#BFBFBF" stroke-linecap="round" stroke-linejoin="round"/>
<path d="M114.775 50.4261C114.63 50.9052 114.471 51.396 114.312 51.8751" stroke="#BFBFBF" stroke-linecap="round" stroke-linejoin="round"/>
<path d="M121.725 49.2346C121.195 49.5914 120.799 50.0804 120.587 50.6384C120.375 51.1964 120.357 51.7978 120.536 52.3648" stroke="#BFBFBF" stroke-linecap="round" stroke-linejoin="round"/>
<path d="M123.548 52.5988C123.461 51.8495 123.691 51.0984 124.194 50.4902C124.696 49.882 125.436 49.4599 126.27 49.3051" stroke="#BFBFBF" stroke-linecap="round" stroke-linejoin="round"/>
<path d="M126.072 52.8441C126.647 51.7859 127.546 50.8912 128.667 50.2616C129.787 49.632 131.085 49.2925 132.414 49.2817" stroke="#BFBFBF" stroke-linecap="round" stroke-linejoin="round"/>
<path d="M128.252 53.8719C128.706 53.1817 129.335 52.5943 130.09 52.156C130.845 51.7177 131.705 51.4406 132.602 51.3466C133.499 51.2526 134.409 51.3442 135.259 51.6142C136.109 51.8843 136.876 52.3253 137.5 52.9025" stroke="#BFBFBF" stroke-linecap="round" stroke-linejoin="round"/>
<path d="M102.091 52.155C101.914 52.3882 101.798 52.653 101.75 52.9306C101.703 53.2082 101.725 53.4917 101.816 53.7607C101.907 54.0297 102.064 54.2777 102.276 54.4867C102.488 54.6957 102.75 54.8607 103.042 54.9699" stroke="#BFBFBF" stroke-linecap="round" stroke-linejoin="round"/>
<path d="M106.042 48.651C105.272 49.781 105.004 51.1232 105.289 52.4178C105.575 53.7125 106.394 54.8674 107.587 55.6589" stroke="#BFBFBF" stroke-linecap="round" stroke-linejoin="round"/>
<path d="M98.7086 54.1287C98.6378 54.3207 98.6174 54.5244 98.6489 54.7244C98.6803 54.9244 98.7628 55.1154 98.8901 55.2831C99.0174 55.4507 99.1861 55.5906 99.3836 55.6921C99.5811 55.7936 99.802 55.8541 100.03 55.869" stroke="#BFBFBF" stroke-linecap="round" stroke-linejoin="round"/>
<path d="M95.6961 55.7871C95.6199 56.0442 95.6566 56.3172 95.7987 56.5514C95.9409 56.7855 96.178 56.9633 96.4624 57.0491" stroke="#BFBFBF" stroke-linecap="round" stroke-linejoin="round"/>
<path d="M93.0273 57.4456C92.997 57.5182 92.9848 57.5959 92.9916 57.6731C92.9984 57.7504 93.024 57.8254 93.0666 57.8931C93.1093 57.9608 93.168 58.0195 93.2388 58.0652C93.3095 58.1109 93.3906 58.1426 93.4765 58.158" stroke="#BFBFBF" stroke-linecap="round" stroke-linejoin="round"/>
<path d="M147.991 144.168C148.638 164.246 145.917 185.246 118.924 196.353" stroke="#263238" stroke-linecap="round" stroke-linejoin="round"/>
<path d="M107.865 205.511C119.626 208.35 131.904 209.119 144.001 207.777" stroke="#263238" stroke-linecap="round" stroke-linejoin="round"/>
<path d="M98.55 202.789C100.096 203.315 101.655 203.817 103.227 204.273" stroke="#263238" stroke-linecap="round" stroke-linejoin="round"/>
<path d="M241.033 175.949C241.082 175.456 240.997 174.959 240.784 174.501C240.572 174.043 240.238 173.637 239.811 173.316C239.383 172.996 238.875 172.771 238.329 172.66C237.784 172.549 237.215 172.555 236.673 172.679C236.673 172.795 236.382 172.831 236.409 172.936C237.429 173.642 238.23 174.566 238.734 175.622C239.5 175.669 240.267 175.926 241.033 175.949Z" stroke="#263238" stroke-linecap="round" stroke-linejoin="round"/>
<path d="M239.632 178.016C238.773 175.846 237.548 173.802 235.999 171.954C231.15 168.661 233.264 167.598 223.87 166.115C223.87 166.208 205.716 170.261 195.833 174.29C195.833 174.29 130.841 167.493 130.841 166.944L120.8 155.264L92.5383 159.153C92.5383 159.153 107.614 180.796 118.963 186.344C118.963 186.344 173.134 185.176 190.707 185.094C200.259 185.094 205.624 189.392 215.018 180.107C215.018 180.107 220.144 184.58 223.196 183.296C225.204 182.805 218.677 177.946 216.445 176.358C217.158 176.72 227.199 182.852 232.788 183.027C233.054 183.039 233.317 182.973 233.536 182.839C233.755 182.704 233.917 182.51 233.997 182.285C234.077 182.061 234.071 181.819 233.979 181.598C233.887 181.377 233.714 181.19 233.489 181.065C233.489 181.065 219.589 174.174 220.276 173.298C220.276 173.298 227.979 175.75 229.208 177.257C234.347 183.494 237.822 181.31 238.311 180.936C239.315 180.165 237.915 179.465 237.915 178.74C237.809 178.752 239.87 179.278 239.632 178.016Z" fill="white" stroke="#263238" stroke-linecap="round" stroke-linejoin="round"/>
<path d="M225.033 170.261C227.781 171.219 231.639 172.737 233.475 174.781C237.043 178.752 237.809 178.752 237.809 178.752" stroke="#263238" stroke-linecap="round" stroke-linejoin="round"/>
<path d="M81.0833 118.017C81.0833 118.017 72.3367 125.025 74.8074 143.549C76.1287 152.986 88.9315 168.661 88.9315 168.661L123.773 158.885C123.773 158.885 115.541 142.439 106.821 131.332" stroke="#263238" stroke-miterlimit="10"/>
<path d="M112.476 130.994C114.737 135.604 116.031 140.539 116.294 145.558" stroke="#263238" stroke-linecap="round" stroke-linejoin="round"/>
<path d="M132.11 72.1392C132.11 72.2092 128.727 76.8111 129.784 78.0959C133.986 82.978 134.567 88.7478 132.731 89.0165C130.3 89.3552 128.489 87.6266 127.446 86.9959" stroke="#263238" stroke-linecap="round" stroke-linejoin="round"/>
<path d="M78.5729 162.003L85.4698 169.642L123.786 158.885L119.082 150.347C119.082 150.347 77.8594 162.003 78.5729 162.003Z" fill="white" stroke="#263238" stroke-linecap="round" stroke-linejoin="round"/>
<path d="M124.486 113.298C124.486 113.1 129.19 135.572 129.19 135.572L126.058 136.214" stroke="#263238" stroke-linecap="round" stroke-linejoin="round"/>
<path d="M153.435 143.047L158.468 141.4L158.786 148.338L153.342 150.125L153.435 143.047Z" fill="white" stroke="#263238" stroke-linecap="round" stroke-linejoin="round"/>
<path d="M150.66 130.982C152.048 137.237 152.975 143.565 153.435 149.926Z" fill="white"/>
<path d="M150.66 130.982C152.048 137.237 152.975 143.565 153.435 149.926" stroke="#263238" stroke-linecap="round" stroke-linejoin="round"/>
<path d="M149.048 123.355C149.339 124.827 149.629 126.228 149.933 127.618Z" fill="white"/>
<path d="M149.048 123.355C149.339 124.827 149.629 126.228 149.933 127.618" stroke="#263238" stroke-linecap="round" stroke-linejoin="round"/>
</g>
<defs>
<filter id="filter0_d_646_10147" x="-4" y="0" width="525" height="478" filterUnits="userSpaceOnUse" color-interpolation-filters="sRGB">
<feFlood flood-opacity="0" result="BackgroundImageFix"/>
<feColorMatrix in="SourceAlpha" type="matrix" values="0 0 0 0 0 0 0 0 0 0 0 0 0 0 0 0 0 0 127 0" result="hardAlpha"/>
<feOffset dy="4"/>
<feGaussianBlur stdDeviation="2"/>
<feComposite in2="hardAlpha" operator="out"/>
<feColorMatrix type="matrix" values="0 0 0 0 0 0 0 0 0 0 0 0 0 0 0 0 0 0 0.25 0"/>
<feBlend mode="normal" in2="BackgroundImageFix" result="effect1_dropShadow_646_10147"/>
<feBlend mode="normal" in="SourceGraphic" in2="effect1_dropShadow_646_10147" result="shape"/>
</filter>
</defs>
</svg>
