<svg width="17" height="17" viewBox="0 0 17 17" fill="none" xmlns="http://www.w3.org/2000/svg">
<path fill-rule="evenodd" clip-rule="evenodd" d="M8.18182 0C10.8161 0 12.9545 1.88756 12.9545 4.21296C12.9545 6.53836 10.8162 8.42593 8.18182 8.42593C5.54745 8.42593 3.40909 6.53836 3.40909 4.21296C3.40909 1.88756 5.54745 0 8.18182 0ZM8.18182 1.2037C6.3 1.2037 4.77273 2.55185 4.77273 4.21296C4.77273 5.87407 6.3 7.22222 8.18182 7.22222C10.0636 7.22222 11.5909 5.87407 11.5909 4.21296C11.5909 2.55185 10.0636 1.2037 8.18182 1.2037ZM11.5909 9.62963C14.227 9.62963 16.3636 11.5157 16.3636 13.8426V15.0463C16.3636 15.5255 16.148 15.9837 15.7653 16.3237C15.3801 16.6615 14.8611 16.8519 14.3182 16.8519H2.04545C1.50255 16.8519 0.98352 16.6615 0.598298 16.3237C0.215629 15.9837 0 15.5255 0 15.0463V13.8426C0 11.5157 2.13665 9.62963 4.77273 9.62963H11.5909ZM11.5909 10.8333H4.77273C2.88921 10.8333 1.36364 12.18 1.36364 13.8426V15.0463C1.36364 15.2065 1.43608 15.3593 1.56307 15.4721C1.69091 15.5842 1.86392 15.6481 2.04545 15.6481H14.3182C14.4997 15.6481 14.6727 15.5842 14.8006 15.4721C14.9275 15.3593 15 15.2065 15 15.0463V13.8426C15 12.18 13.4744 10.8333 11.5909 10.8333Z" fill="#14FF8E"/>
</svg>
