<svg width="75" height="114" viewBox="0 0 75 114" fill="none" xmlns="http://www.w3.org/2000/svg">
<path d="M56.1689 57.0147C56.1689 57.0147 66.6413 58.3914 67.9929 59.5916C71.7072 62.8846 68.9929 91.0437 68.9929 91.0437H62.7952L62.4765 69.5915H54.6378L56.1689 57.0147Z" fill="#FFC9B0"/>
<path d="M68.9893 91.5474H62.7952C62.6981 91.5474 62.6049 91.4943 62.5362 91.3997C62.4675 91.3051 62.4289 91.1769 62.4289 91.0431L62.1176 70.065H54.6378C54.5849 70.065 54.5326 70.0492 54.4846 70.0187C54.4365 69.9883 54.3938 69.9438 54.3594 69.8885C54.3247 69.8329 54.2991 69.7676 54.2846 69.697C54.27 69.6265 54.2668 69.5524 54.2752 69.48L55.8026 56.9334C55.8171 56.8068 55.8661 56.6926 55.9396 56.6139C56.0131 56.5352 56.1055 56.498 56.1982 56.5098C57.2971 56.6561 66.7988 57.937 68.1871 59.1674C69.8684 60.655 70.5423 66.3484 70.2456 76.5702C70.0332 83.963 69.3592 91.0381 69.3519 91.1087C69.3403 91.2299 69.2972 91.3412 69.2305 91.4219C69.1638 91.5026 69.0781 91.5472 68.9893 91.5474ZM63.1688 90.5388H68.6633C69.4142 82.4703 70.6193 62.5259 67.7878 60.0146C66.8757 59.2077 60.6451 58.1235 56.4656 57.5587L55.07 69.0866H62.4765C62.5737 69.0866 62.6668 69.1398 62.7355 69.2343C62.8042 69.3289 62.8428 69.4572 62.8428 69.5909L63.1688 90.5388Z" fill="#093F68"/>
<path d="M7.47004 47.6096C7.47004 47.6096 5.42611 45.6732 2.84007 48.5173C0.254027 51.3615 0.0855295 53.8325 0.569039 54.1552C1.05255 54.478 1.96462 53.2626 1.96462 53.2626C1.32705 55.8643 1.29886 58.676 1.88404 61.3009C2.90234 65.9252 4.64224 68.1491 9.25756 68.5474C11.5173 68.666 13.756 67.9095 15.719 66.3639C15.719 66.3639 17.2062 60.5697 15.0707 56.6262C12.9352 52.6827 7.47004 47.6096 7.47004 47.6096Z" fill="#725858"/>
<path d="M9.87653 69.0866C9.66408 69.0866 9.45163 69.0866 9.23551 69.0866C4.75572 68.6983 2.66784 66.6358 1.54332 61.482C1.04937 59.2303 0.978783 56.8427 1.33819 54.5431C1.20086 54.6535 1.04722 54.72 0.888682 54.7374C0.730146 54.7549 0.570789 54.7229 0.422452 54.644C0.299904 54.5537 0.196992 54.4202 0.124259 54.2572C0.0515258 54.0941 0.0115882 53.9074 0.0085397 53.7161C-0.0830341 52.5814 0.546992 50.4433 2.62022 48.169C5.37476 45.1433 7.57253 47.1301 7.68608 47.236C7.92784 47.4579 13.2318 52.4049 15.3783 56.3686C17.6054 60.4785 16.1438 66.3282 16.0779 66.5753C16.0509 66.6836 15.998 66.7761 15.9277 66.8375C14.0822 68.2827 11.9996 69.0567 9.87653 69.0866ZM1.95723 52.7579C2.03028 52.7577 2.10172 52.7876 2.16235 52.8437C2.23711 52.903 2.29427 52.9967 2.32376 53.1083C2.35324 53.2199 2.35316 53.3423 2.32352 53.4539C1.72111 55.9502 1.69552 58.6421 2.25027 61.1593C3.14403 65.1936 4.58356 67.6393 9.29778 68.0478C11.4382 68.1578 13.5598 67.4603 15.4332 66.0307C15.6457 65.0675 16.5907 60.2415 14.7959 56.9284C12.7226 53.1009 7.3381 48.0832 7.28316 48.0328C7.20257 47.9622 5.41139 46.3636 3.08542 48.9254C0.759445 51.4872 0.616588 53.4639 0.774095 53.7363C1.1412 53.5846 1.47158 53.2988 1.73013 52.9092C1.79043 52.8234 1.8709 52.7698 1.95723 52.7579Z" fill="#093F68"/>
<path d="M20.0046 59.5061C19.7226 61.841 18.5395 63.7572 17.1659 65.0835C16.4552 65.7794 15.5468 66.9745 14.6348 66.3039C14.2551 65.9838 13.9382 65.5405 13.7117 65.0129C13.1772 63.7736 12.4992 62.663 11.7044 61.725C10.6861 60.6811 9.31249 60.6559 8.36012 59.3599C6.68982 57.0957 7.84364 53.9489 7.83998 51.1754C7.83998 50.8678 7.83998 47.7009 7.47369 47.605L14.2685 49.1683C18.023 50.0357 20.6383 54.2565 20.0046 59.5061Z" fill="#FFC9B0"/>
<path d="M15.1951 67.0095C14.9392 67.0085 14.6874 66.9202 14.4625 66.7523C14.0287 66.394 13.6662 65.8933 13.4075 65.2949C12.895 64.1046 12.2456 63.0368 11.4845 62.1331C11.0467 61.732 10.5693 61.4195 10.0669 61.2052C9.34066 60.9203 8.66985 60.4154 8.10358 59.7276C6.78125 57.9374 7.04865 55.6228 7.28674 53.5804C7.39312 52.788 7.45557 51.9855 7.47355 51.18C7.51046 50.1253 7.44393 49.0686 7.27575 48.0383C7.20207 47.9774 7.1463 47.8828 7.11819 47.771C7.09007 47.6592 7.09142 47.5373 7.12198 47.4267C7.15253 47.3161 7.21037 47.2239 7.28535 47.166C7.36034 47.1082 7.4477 47.0886 7.53216 47.1105L14.3269 48.6737C16.1876 49.0555 17.8784 50.3767 19.0705 52.3802C19.6443 53.3889 20.0565 54.5535 20.28 55.7972C20.5035 57.041 20.5332 58.3358 20.3671 59.5965C20.0997 61.7901 19.0375 63.888 17.3782 65.5017L17.0815 65.8042C16.565 66.3337 15.9093 67.0095 15.1951 67.0095ZM8.07427 48.2602C8.17929 49.2264 8.22341 50.2034 8.20614 51.18C8.1892 52.0381 8.12306 52.893 8.00834 53.7367C7.78124 55.7135 7.56513 57.5844 8.61639 59.0065C9.10876 59.5913 9.68924 60.0185 10.316 60.2571C10.8873 60.5025 11.4292 60.8628 11.924 61.3262C12.7539 62.2966 13.4608 63.4504 14.0156 64.7402C14.2103 65.1953 14.4816 65.5793 14.8068 65.8597C15.3489 66.2581 15.9057 65.7538 16.6383 64.9974C16.7445 64.8864 16.8507 64.7755 16.9533 64.6797C18.4514 63.2223 19.4074 61.3565 19.6419 59.4301C19.7914 58.3085 19.7665 57.156 19.5689 56.0486C19.3713 54.9412 19.0054 53.9041 18.4954 53.0055C17.4146 51.1992 15.8843 50.011 14.2024 49.6722L8.07427 48.2602Z" fill="#093F68"/>
<path d="M11.9021 52.658C12.2541 52.658 12.5395 52.265 12.5395 51.7803C12.5395 51.2956 12.2541 50.9027 11.9021 50.9027C11.5501 50.9027 11.2648 51.2956 11.2648 51.7803C11.2648 52.265 11.5501 52.658 11.9021 52.658Z" fill="#093F68"/>
<path d="M12.4589 49.556C12.4589 49.556 15.5541 47.9873 15.5907 48.6077C15.5688 49.3079 15.4927 50.0028 15.3636 50.6807" fill="#FFC9B0"/>
<path d="M15.3636 51.184C15.3344 51.1889 15.3049 51.1889 15.2757 51.184C15.1815 51.1518 15.1004 51.0695 15.0503 50.9551C15.0002 50.8407 14.9851 50.7036 15.0083 50.5739C15.1044 50.0518 15.1742 49.5212 15.2171 48.9858C14.3202 49.2357 13.4404 49.5899 12.5871 50.0446C12.5417 50.0678 12.4933 50.0784 12.4449 50.0758C12.3964 50.0731 12.3489 50.0573 12.3049 50.0292C12.261 50.001 12.2215 49.9612 12.1888 49.9119C12.1562 49.8626 12.1309 49.8049 12.1146 49.7421C12.0816 49.6164 12.0862 49.4778 12.1274 49.3568C12.1686 49.2358 12.243 49.1422 12.3343 49.0967C15.2134 47.6396 15.6127 47.9875 15.7445 48.0883C15.8038 48.1407 15.8534 48.2112 15.8896 48.2943C15.9258 48.3773 15.9476 48.4708 15.9533 48.5673C15.9383 49.3218 15.8596 50.0713 15.7189 50.8008C15.6993 50.9101 15.6536 51.0073 15.5892 51.0767C15.5248 51.1461 15.4454 51.1839 15.3636 51.184Z" fill="#093F68"/>
<path d="M10.5102 60.1555C10.5102 60.1555 9.08168 62.1722 10.4113 63.7503C11.741 65.3284 14.4113 64.7184 14.1365 60.7656" fill="#FFC9B0"/>
<path d="M12.0157 65.0528C11.3449 65.0504 10.6962 64.7217 10.1842 64.125C9.98159 63.9043 9.81514 63.6272 9.69582 63.3117C9.57651 62.9962 9.50702 62.6495 9.49194 62.2944C9.51375 61.3531 9.78623 60.4557 10.2575 59.773C10.325 59.6767 10.4176 59.6213 10.5148 59.6189C10.612 59.6166 10.7059 59.6674 10.7758 59.7604C10.8458 59.8533 10.886 59.9807 10.8877 60.1146C10.8894 60.2484 10.8525 60.3777 10.785 60.474C10.4542 60.9521 10.2559 61.575 10.2245 62.2339C10.2355 62.4502 10.28 62.6608 10.3552 62.8514C10.4304 63.0419 10.5345 63.208 10.6604 63.3383C10.9645 63.6921 11.3359 63.9186 11.7306 63.991C12.1252 64.0634 12.5267 63.9786 12.8875 63.7468C13.5651 63.2425 13.8838 62.2087 13.7849 60.7816C13.7804 60.7153 13.7853 60.6485 13.7995 60.5849C13.8137 60.5214 13.8368 60.4622 13.8676 60.411C13.8984 60.3597 13.9362 60.3172 13.9789 60.2861C14.0216 60.2549 14.0683 60.2357 14.1164 60.2294C14.1645 60.2231 14.2131 60.2299 14.2592 60.2494C14.3054 60.269 14.3484 60.3008 14.3856 60.3432C14.4229 60.3856 14.4537 60.4376 14.4763 60.4964C14.4989 60.5552 14.5129 60.6195 14.5175 60.6858C14.6457 62.5213 14.1769 63.9636 13.2282 64.6393C12.8544 64.9107 12.4383 65.0527 12.0157 65.0528Z" fill="#093F68"/>
<path d="M9.79227 55.2687C9.70738 55.2677 9.62319 55.2473 9.54319 55.2081C9.3606 55.1171 9.21174 54.93 9.12932 54.6879C9.0469 54.4459 9.03766 54.1686 9.10364 53.9172L10.0743 50.2258C10.1409 49.9737 10.2774 49.7683 10.454 49.6549C10.6305 49.5414 10.8326 49.5291 11.0157 49.6207C11.1988 49.7123 11.348 49.9003 11.4304 50.1434C11.5129 50.3864 11.5218 50.6646 11.4553 50.9167L10.4846 54.603C10.4332 54.7987 10.339 54.9678 10.2151 55.087C10.0911 55.2061 9.94345 55.2696 9.79227 55.2687Z" fill="#093F68"/>
<path d="M15.6383 56.4789C15.5411 56.4789 15.448 56.4258 15.3793 56.3312C15.3106 56.2366 15.272 56.1084 15.272 55.9747C15.272 55.841 15.3106 55.7127 15.3793 55.6182C15.448 55.5236 15.5411 55.4705 15.6383 55.4705C15.852 55.4831 16.0652 55.4337 16.2642 55.3256C16.4631 55.2175 16.6434 55.0531 16.7933 54.843C16.9431 54.6329 17.0593 54.3819 17.1341 54.1061C17.209 53.8303 17.241 53.5359 17.228 53.242C17.228 53.1083 17.2666 52.9801 17.3353 52.8855C17.404 52.791 17.4971 52.7379 17.5943 52.7379C17.6914 52.7379 17.7846 52.791 17.8533 52.8855C17.922 52.9801 17.9606 53.1083 17.9606 53.242C17.9635 53.7832 17.8797 54.3186 17.7152 54.81C17.5305 55.3369 17.2388 55.7788 16.8753 56.0822C16.5119 56.3855 16.0924 56.5373 15.6676 56.5192L15.6383 56.4789Z" fill="#093F68"/>
<path d="M23.6236 51.2153L24.4294 50.7867C25.7129 50.0556 27.1237 49.8575 28.4879 50.2169C29.8066 50.6304 30.9458 51.7297 32.2498 52.1937C33.5538 52.6576 34.975 52.1937 36.3596 52.2945L42.3962 52.6626L41.9163 69.5914H23.7115C22.3941 69.5914 21.1308 68.871 20.1993 67.5886C19.2678 66.3062 18.7445 64.5669 18.7445 62.7533V58.3762C18.7445 54.3419 21.2133 52.5366 23.6236 51.2153Z" fill="#68E1FD"/>
<path d="M41.9163 70.095H23.7114C22.2973 70.0937 20.9413 69.3197 19.9413 67.943C18.9414 66.5664 18.3791 64.6996 18.3782 62.7527V58.3755C18.3782 54.1547 20.836 52.2233 23.488 50.7659L24.3012 50.3322C25.6511 49.5651 27.1352 49.3616 28.5685 49.7472C29.2696 49.9964 29.9498 50.3462 30.5978 50.7911C31.1565 51.1724 31.7388 51.4846 32.3377 51.724C33.1503 51.9475 33.9835 51.9934 34.8065 51.8602C35.3293 51.8053 35.8538 51.7884 36.3779 51.8097L42.4108 52.1779C42.5079 52.1779 42.6011 52.231 42.6698 52.3256C42.7385 52.4201 42.7771 52.5484 42.7771 52.6822L42.2826 69.5907C42.2826 69.7245 42.244 69.8528 42.1753 69.9473C42.1066 70.0419 42.0134 70.095 41.9163 70.095ZM27.2315 50.5339C26.3207 50.551 25.4197 50.7953 24.5722 51.255L23.77 51.6837C20.9789 53.1965 19.1218 54.9363 19.1218 58.3553V62.7325C19.1188 64.4128 19.6006 66.0259 20.4613 67.2174C21.3219 68.4089 22.4909 69.0811 23.7114 69.0865H41.561L42.0152 53.1612L36.3449 52.8133C35.8464 52.7964 35.3476 52.8149 34.8505 52.8687C33.9523 53.0092 33.0436 52.9531 32.1582 52.7023C31.5166 52.4414 30.8927 52.104 30.2937 51.6938C29.6908 51.28 29.0587 50.9522 28.4073 50.7155C28.0213 50.5964 27.6271 50.5355 27.2315 50.5339Z" fill="#093F68"/>
<path d="M60.2055 69.5708H41.9164L42.3962 52.6622L60.2055 54.3616V69.5708Z" fill="#F56132"/>
<path d="M60.1981 70.0951H41.9163C41.867 70.0948 41.8182 70.0809 41.7729 70.054C41.7276 70.0271 41.6866 69.9879 41.6526 69.9388C41.6184 69.89 41.5917 69.8323 41.5741 69.7691C41.5565 69.7058 41.5483 69.6384 41.55 69.5707L42.0299 52.6621C42.0315 52.5942 42.043 52.5276 42.0638 52.4661C42.0846 52.4046 42.1142 52.3494 42.1508 52.304C42.1875 52.259 42.2304 52.2247 42.277 52.203C42.3235 52.1814 42.3728 52.1728 42.4218 52.1779L60.2311 53.8824C60.3237 53.8914 60.4104 53.9484 60.4737 54.042C60.5369 54.1357 60.572 54.2589 60.5717 54.3867V69.5908C60.5717 69.6579 60.562 69.7243 60.5432 69.7862C60.5243 69.848 60.4967 69.9041 60.4619 69.951C60.4271 69.998 60.3858 70.0349 60.3405 70.0597C60.2953 70.0844 60.2468 70.0964 60.1981 70.0951ZM42.29 69.0865H59.8318V54.8355L42.7405 53.2016L42.29 69.0865Z" fill="#093F68"/>
<path d="M20.9561 33.3723L27.1487 34.5978L24.2822 62.0512C24.1642 63.1817 23.7248 64.2014 23.0606 64.8859C22.3965 65.5705 21.562 65.8637 20.7408 65.7012C19.9196 65.5387 19.179 64.9337 18.6818 64.0194C18.1846 63.105 17.9715 61.9562 18.0896 60.8257L20.9561 33.3723Z" fill="#FFC9B0"/>
<path d="M21.1841 66.2734C21.0161 66.274 20.8484 66.2571 20.6823 66.223C19.7657 66.0395 18.9395 65.3631 18.3847 64.3421C17.8298 63.3212 17.5917 62.039 17.7226 60.7767L20.5907 33.2832C20.6043 33.1508 20.6556 33.0313 20.7332 32.9509C20.8108 32.8705 20.9084 32.8359 21.0046 32.8546L27.1987 34.08C27.2464 34.0893 27.2923 34.1114 27.3338 34.1452C27.3753 34.1789 27.4115 34.2236 27.4404 34.2766C27.4697 34.3302 27.4909 34.3912 27.5029 34.4561C27.5148 34.521 27.5172 34.5886 27.51 34.6549L24.6383 62.1282C24.521 63.2756 24.1073 64.3264 23.4728 65.0878C22.8383 65.8492 22.0258 66.2701 21.1841 66.2734ZM21.2647 33.9489L18.4406 60.9179C18.3876 61.4126 18.406 61.9168 18.4946 62.4017C18.5833 62.8866 18.7404 63.3427 18.9571 63.744C19.1737 64.1453 19.4457 64.484 19.7574 64.7406C20.0691 64.9972 20.4145 65.1668 20.7738 65.2396C21.1332 65.3124 21.4994 65.2871 21.8516 65.1651C22.2039 65.0431 22.5352 64.8268 22.8267 64.5285C23.1182 64.2302 23.3641 63.8558 23.5505 63.4267C23.7369 62.9975 23.8601 62.522 23.913 62.0273L26.7335 35.0532L21.2647 33.9489Z" fill="#093F68"/>
<path d="M25.5466 38.835C33.236 38.835 39.4695 30.2532 39.4695 19.6672C39.4695 9.0811 33.236 0.49939 25.5466 0.49939C17.8573 0.49939 11.6238 9.0811 11.6238 19.6672C11.6238 30.2532 17.8573 38.835 25.5466 38.835Z" fill="#68E1FD"/>
<path d="M25.5465 39.3341C22.7211 39.3341 19.9591 38.1806 17.6099 36.0196C15.2607 33.8585 13.4296 30.787 12.3484 27.1933C11.2672 23.5996 10.9843 19.6452 11.5355 15.8302C12.0867 12.0152 13.4473 8.51083 15.4451 5.76035C17.443 3.00986 19.9884 1.13676 22.7595 0.377905C25.5306 -0.380951 28.403 0.0085206 31.0133 1.49707C33.6237 2.98562 35.8547 5.5064 37.4245 8.74062C38.9942 11.9748 39.832 15.7773 39.832 19.667C39.8262 24.8806 38.3192 29.8783 35.6415 33.5649C32.9637 37.2514 29.3335 39.3261 25.5465 39.3341ZM25.5465 1.00857C22.866 1.00857 20.2457 2.10287 18.0169 4.15309C15.7881 6.20331 14.051 9.11736 13.0252 12.5267C11.9995 15.9361 11.7311 19.6877 12.254 23.3071C12.7769 26.9265 14.0677 30.2511 15.9631 32.8606C17.8585 35.47 20.2734 37.247 22.9025 37.967C25.5315 38.6869 28.2565 38.3174 30.733 36.9052C33.2094 35.493 35.3261 33.1015 36.8153 30.0331C38.3045 26.9647 39.0994 23.3573 39.0994 19.667C39.0946 14.7206 37.6651 9.97857 35.1245 6.48088C32.5839 2.98318 29.1395 1.01525 25.5465 1.00857Z" fill="#093F68"/>
<path d="M25.5467 34.4531C31.4781 34.4531 36.2864 27.8334 36.2864 19.6675C36.2864 11.5017 31.4781 4.88196 25.5467 4.88196C19.6152 4.88196 14.8069 11.5017 14.8069 19.6675C14.8069 27.8334 19.6152 34.4531 25.5467 34.4531Z" fill="#68E1FD"/>
<path d="M25.5465 34.9626C23.349 34.9636 21.2007 34.0674 19.3733 32.3874C17.5458 30.7074 16.1213 28.319 15.2798 25.5243C14.4384 22.7296 14.2179 19.6542 14.6461 16.6869C15.0744 13.7197 16.1322 10.9939 17.6858 8.85436C19.2394 6.71483 21.2189 5.25763 23.3741 4.66707C25.5293 4.0765 27.7632 4.3791 29.7935 5.53658C31.8237 6.69407 33.5591 8.65445 34.78 11.1698C36.0009 13.6851 36.6526 16.6424 36.6526 19.6677C36.6497 23.7221 35.4787 27.6093 33.3967 30.4766C31.3146 33.344 28.4914 34.9573 25.5465 34.9626ZM25.5465 5.38642C23.4938 5.38542 21.487 6.22258 19.7799 7.792C18.0728 9.36141 16.7422 11.5926 15.9563 14.2033C15.1704 16.814 14.9646 19.6869 15.3649 22.4586C15.7652 25.2304 16.7536 27.7764 18.2051 29.7747C19.6566 31.773 21.5059 33.1337 23.5193 33.6848C25.5326 34.2359 27.6194 33.9526 29.5157 32.8706C31.412 31.7887 33.0327 29.9568 34.1726 27.6067C35.3126 25.2565 35.9207 22.4937 35.92 19.6677C35.9171 15.8813 34.8232 12.2511 32.8784 9.57373C30.9337 6.89634 28.2968 5.39042 25.5465 5.38642Z" fill="#093F68"/>
<path d="M25.5466 22.44C26.6592 22.44 27.5612 21.1982 27.5612 19.6664C27.5612 18.1346 26.6592 16.8929 25.5466 16.8929C24.434 16.8929 23.532 18.1346 23.532 19.6664C23.532 21.1982 24.434 22.44 25.5466 22.44Z" fill="#093F68"/>
<path d="M25.5467 22.9492C25.0749 22.9502 24.6135 22.7585 24.2209 22.3984C23.8283 22.0382 23.5221 21.5259 23.341 20.9261C23.16 20.3263 23.1122 19.6661 23.2038 19.0289C23.2954 18.3918 23.5222 17.8064 23.8556 17.3467C24.1889 16.8871 24.6138 16.574 25.0765 16.4469C25.5391 16.3198 26.0188 16.3845 26.4547 16.6328C26.8907 16.8812 27.2633 17.3019 27.5255 17.8419C27.7877 18.3819 27.9276 19.0168 27.9276 19.6663C27.9266 20.5357 27.6756 21.3692 27.2294 21.9844C26.7832 22.5996 26.1782 22.9465 25.5467 22.9492ZM25.5467 17.4021C25.2196 17.4011 24.8997 17.5337 24.6275 17.7833C24.3553 18.0328 24.143 18.3879 24.0175 18.8037C23.892 19.2195 23.859 19.6772 23.9226 20.1188C23.9862 20.5605 24.1436 20.9662 24.3749 21.2846C24.6062 21.6029 24.9008 21.8196 25.2216 21.9072C25.5424 21.9948 25.8749 21.9494 26.1769 21.7766C26.4789 21.6038 26.7369 21.3116 26.9181 20.9368C27.0994 20.562 27.1957 20.1216 27.195 19.6713C27.195 19.069 27.0215 18.4913 26.7125 18.0649C26.4034 17.6386 25.9842 17.3984 25.5467 17.397V17.4021Z" fill="#093F68"/>
<path d="M62.7952 91.0438V97.2062H74.0954C74.2084 97.2064 74.3185 97.1563 74.4092 97.0633C74.4999 96.9702 74.5662 96.8393 74.5984 96.6901C74.6305 96.5408 74.6267 96.3813 74.5876 96.2353C74.5484 96.0892 74.476 95.9646 74.3811 95.8799L68.9892 91.0438H62.7952Z" fill="#68E1FD"/>
<path d="M74.0955 97.7094H62.7952C62.6981 97.7094 62.6049 97.6562 62.5362 97.5617C62.4676 97.4671 62.429 97.3388 62.429 97.2051V91.0427C62.429 90.909 62.4676 90.7807 62.5362 90.6862C62.6049 90.5916 62.6981 90.5385 62.7952 90.5385H68.9893C69.0595 90.5387 69.1281 90.5667 69.1871 90.6191L74.5936 95.4552C74.7548 95.5989 74.878 95.8105 74.9447 96.0585C75.0114 96.3064 75.018 96.5774 74.9636 96.831C74.9092 97.0846 74.7967 97.3071 74.6429 97.4655C74.4891 97.6238 74.3022 97.7093 74.1101 97.7094H74.0955ZM63.1615 96.7008H74.0955C74.13 96.7042 74.1643 96.6903 74.1919 96.6615C74.2195 96.6327 74.2386 96.5912 74.2456 96.5445C74.2577 96.5 74.2577 96.4509 74.2456 96.4064C74.2335 96.3619 74.2101 96.325 74.1797 96.3024L68.8648 91.547H63.1615V96.7008Z" fill="#093F68"/>
<path d="M5.56528 69.5909H57.7C58.7997 69.5909 59.8544 70.1924 60.632 71.2629C61.4096 72.3335 61.8465 73.7854 61.8465 75.2994V76.076C61.8465 76.7742 61.6451 77.4437 61.2865 77.9374C60.9279 78.431 60.4416 78.7084 59.9344 78.7084H3.33088C2.82377 78.7084 2.33743 78.431 1.97885 77.9374C1.62027 77.4437 1.41882 76.7742 1.41882 76.076V75.2994C1.41882 73.7854 1.85568 72.3335 2.63329 71.2629C3.4109 70.1924 4.46557 69.5909 5.56528 69.5909Z" fill="#093F68"/>
<path d="M59.9344 79.1724H3.33085C2.72689 79.1711 2.14794 78.8402 1.72087 78.2522C1.29381 77.6643 1.05346 76.8672 1.05249 76.0357V75.2592C1.06119 73.6188 1.54036 72.0497 2.38562 70.8936C3.23088 69.7375 4.37374 69.088 5.56524 69.0867H57.7C58.8963 69.0894 60.043 69.7448 60.8889 70.9094C61.7348 72.0739 62.2108 73.6526 62.2128 75.2995V76.0761C62.2041 76.9006 61.9604 77.6873 61.5341 78.2665C61.1079 78.8458 60.5333 79.1711 59.9344 79.1724ZM5.56524 70.0953C4.56298 70.0966 3.60204 70.6454 2.89334 71.621C2.18463 72.5967 1.78605 73.9197 1.78508 75.2995V76.0761C1.78508 76.6405 1.94794 77.1818 2.23782 77.5809C2.52771 77.98 2.92088 78.2042 3.33085 78.2042H59.9344C60.1374 78.2042 60.3384 78.1491 60.526 78.0422C60.7135 77.9352 60.8839 77.7785 61.0274 77.5809C61.171 77.3833 61.2848 77.1487 61.3625 76.8905C61.4402 76.6323 61.4802 76.3556 61.4802 76.0761V75.2995C61.4792 73.9197 61.0806 72.5967 60.3719 71.621C59.6632 70.6454 58.7023 70.0966 57.7 70.0953H5.56524Z" fill="#093F68"/>
<path d="M8.29053 78.6885H11.9022V94.5885H8.29053V78.6885Z" fill="#093F68"/>
<path d="M11.9022 95.0969H8.29049C8.19334 95.0969 8.10017 95.0438 8.03148 94.9492C7.96279 94.8546 7.92419 94.7264 7.92419 94.5926V78.6674C7.92419 78.5336 7.96279 78.4054 8.03148 78.3108C8.10017 78.2162 8.19334 78.1631 8.29049 78.1631H11.9022C11.9993 78.1631 12.0925 78.2162 12.1612 78.3108C12.2299 78.4054 12.2685 78.5336 12.2685 78.6674V94.5724C12.2704 94.6403 12.2624 94.7081 12.2449 94.7716C12.2274 94.8352 12.2007 94.8932 12.1665 94.9421C12.1323 94.9911 12.0912 95.0301 12.0458 95.0567C12.0004 95.0833 11.9515 95.097 11.9022 95.0969ZM8.65678 94.0883H11.5359V79.1717H8.65678V94.0883Z" fill="#093F68"/>
<path d="M12.7849 94.5936H6.92784C6.37961 94.5936 5.93518 95.2053 5.93518 95.96V95.965C5.93518 96.7196 6.37961 97.3313 6.92784 97.3313H12.7849C13.3331 97.3313 13.7776 96.7196 13.7776 95.965V95.96C13.7776 95.2053 13.3331 94.5936 12.7849 94.5936Z" fill="#093F68"/>
<path d="M12.7849 97.8297H6.92421C6.73957 97.8429 6.55491 97.8042 6.38147 97.716C6.20804 97.6279 6.04945 97.492 5.91537 97.3168C5.78129 97.1416 5.67452 96.9306 5.60156 96.6968C5.52859 96.463 5.49097 96.2112 5.49097 95.9567C5.49097 95.7022 5.52859 95.4504 5.60156 95.2165C5.67452 94.9827 5.78129 94.7717 5.91537 94.5965C6.04945 94.4213 6.20804 94.2855 6.38147 94.1973C6.55491 94.1091 6.73957 94.0704 6.92421 94.0836H12.7849C13.1336 94.1085 13.4621 94.3167 13.7025 94.6653C13.9429 95.0138 14.0769 95.4761 14.0769 95.9567C14.0769 96.4373 13.9429 96.8995 13.7025 97.248C13.4621 97.5966 13.1336 97.8048 12.7849 97.8297ZM6.92421 95.092C6.83768 95.0829 6.75072 95.0985 6.66877 95.1378C6.58683 95.1771 6.51167 95.2393 6.44801 95.3205C6.38436 95.4017 6.33357 95.5001 6.29884 95.6096C6.26411 95.7191 6.24618 95.8372 6.24618 95.9567C6.24618 96.0761 6.26411 96.1943 6.29884 96.3037C6.33357 96.4132 6.38436 96.5116 6.44801 96.5928C6.51167 96.674 6.58683 96.7362 6.66877 96.7755C6.75072 96.8148 6.83768 96.8304 6.92421 96.8213H12.7849C12.9433 96.8047 13.0912 96.7064 13.1991 96.546C13.307 96.3857 13.367 96.1752 13.367 95.9567C13.367 95.7381 13.307 95.5276 13.1991 95.3673C13.0912 95.207 12.9433 95.1086 12.7849 95.092H6.92421Z" fill="#093F68"/>
<path d="M50.3522 78.6885H53.9638V94.5885H50.3522V78.6885Z" fill="#093F68"/>
<path d="M53.9711 95.0969H50.3558C50.2586 95.0969 50.1655 95.0438 50.0968 94.9492C50.0281 94.8546 49.9895 94.7264 49.9895 94.5926V78.6674C49.9895 78.5336 50.0281 78.4054 50.0968 78.3108C50.1655 78.2162 50.2586 78.1631 50.3558 78.1631H53.9711C54.0683 78.1631 54.1614 78.2162 54.2301 78.3108C54.2988 78.4054 54.3374 78.5336 54.3374 78.6674V94.5724C54.3394 94.6403 54.3314 94.7081 54.3139 94.7716C54.2963 94.8352 54.2697 94.8932 54.2355 94.9421C54.2012 94.9911 54.1602 95.0301 54.1148 95.0567C54.0693 95.0833 54.0205 95.097 53.9711 95.0969ZM50.7221 94.0883H53.6048V79.1717H50.7221V94.0883Z" fill="#093F68"/>
<path d="M54.8502 94.5936H48.9932C48.4449 94.5936 48.0005 95.2053 48.0005 95.96V95.965C48.0005 96.7196 48.4449 97.3313 48.9932 97.3313H54.8502C55.3984 97.3313 55.8429 96.7196 55.8429 95.965V95.96C55.8429 95.2053 55.3984 94.5936 54.8502 94.5936Z" fill="#093F68"/>
<path d="M54.8466 97.8297H48.9858C48.6371 97.8048 48.3087 97.5966 48.0683 97.248C47.8279 96.8995 47.6938 96.4373 47.6938 95.9567C47.6938 95.4761 47.8279 95.0138 48.0683 94.6653C48.3087 94.3167 48.6371 94.1085 48.9858 94.0836H54.8466C55.0312 94.0704 55.2159 94.1091 55.3893 94.1973C55.5627 94.2855 55.7213 94.4213 55.8554 94.5965C55.9895 94.7717 56.0963 94.9827 56.1692 95.2165C56.2422 95.4504 56.2798 95.7022 56.2798 95.9567C56.2798 96.2112 56.2422 96.463 56.1692 96.6968C56.0963 96.9306 55.9895 97.1416 55.8554 97.3168C55.7213 97.492 55.5627 97.6279 55.3893 97.716C55.2159 97.8042 55.0312 97.8429 54.8466 97.8297ZM48.9858 95.092C48.8275 95.1086 48.6796 95.207 48.5717 95.3673C48.4638 95.5276 48.4038 95.7381 48.4038 95.9567C48.4038 96.1752 48.4638 96.3857 48.5717 96.546C48.6796 96.7064 48.8275 96.8047 48.9858 96.8213H54.8466C54.9331 96.8304 55.0201 96.8148 55.102 96.7755C55.1839 96.7362 55.2591 96.674 55.3228 96.5928C55.3864 96.5116 55.4372 96.4132 55.4719 96.3037C55.5067 96.1943 55.5246 96.0761 55.5246 95.9567C55.5246 95.8372 55.5067 95.7191 55.4719 95.6096C55.4372 95.5001 55.3864 95.4017 55.3228 95.3205C55.2591 95.2393 55.1839 95.1771 55.102 95.1378C55.0201 95.0985 54.9331 95.0829 54.8466 95.092H48.9858Z" fill="#093F68"/>
<path d="M68.7071 95.0975C68.6168 95.0986 68.5294 95.0537 68.4617 94.9715C68.4254 94.9273 68.3958 94.8737 68.3746 94.8137C68.3535 94.7537 68.3412 94.6885 68.3385 94.6219C68.3357 94.5554 68.3426 94.4887 68.3588 94.4258C68.3749 94.3629 68.3999 94.305 68.4324 94.2556L69.9855 91.8607C70.0501 91.7604 70.141 91.6996 70.2382 91.6915C70.3354 91.6835 70.431 91.7289 70.5038 91.8178C70.5767 91.9068 70.6209 92.0319 70.6267 92.1657C70.6326 92.2995 70.5995 92.431 70.5349 92.5313L68.9892 94.9261C68.954 94.9812 68.9106 95.0251 68.8619 95.0547C68.8132 95.0843 68.7604 95.0989 68.7071 95.0975Z" fill="#093F68"/>
<ellipse cx="37.5" cy="109.832" rx="32.5" ry="4" fill="#0F003C"/>
</svg>
