<svg width="45" height="33" viewBox="0 0 45 33" fill="none" xmlns="http://www.w3.org/2000/svg">
<path fill-rule="evenodd" clip-rule="evenodd" d="M22.2782 0.000120891C22.7415 0.00307803 23.2038 0.0183561 23.6656 0.0489133C24.5774 0.109042 25.4858 0.224368 26.3837 0.394897C28.5109 0.798547 30.575 1.51073 32.509 2.48363C34.4415 3.45505 36.2414 4.68325 37.8737 6.1012C39.2517 7.29786 40.5115 8.62956 41.6436 10.0608C42.03 10.5487 42.4011 11.048 42.7579 11.5581C42.8777 11.7291 42.9955 11.9016 43.1123 12.0756C43.2577 12.2925 43.3982 12.5113 43.5238 12.7405C43.8821 13.3965 44.131 14.1111 44.2587 14.8479C44.4795 16.1264 44.3277 17.4601 43.8245 18.6562C43.7101 18.9273 43.5785 19.191 43.4307 19.4448C43.3311 19.6158 43.2227 19.7804 43.1123 19.9446C42.9575 20.1757 42.7993 20.4049 42.6382 20.6321C42.0019 21.5296 41.3193 22.3936 40.5918 23.2181C38.6588 25.4079 36.4016 27.3187 33.8776 28.7933C32.2586 29.7391 30.5326 30.5026 28.7376 31.0462C26.6454 31.68 24.4646 32.0102 22.2782 32.0196C20.0579 32.0294 17.8401 31.7086 15.7124 31.0743C13.8844 30.5292 12.1269 29.7554 10.4797 28.7933C7.95581 27.3187 5.69852 25.4074 3.76603 23.2181C3.03808 22.3936 2.35547 21.5291 1.71969 20.6321C1.55852 20.4049 1.40031 20.1757 1.24506 19.9441C1.13516 19.78 1.02673 19.6153 0.927172 19.4448C0.779314 19.1905 0.647229 18.9273 0.533379 18.6562C0.0296786 17.4601 -0.122121 16.1264 0.0986786 14.8474C0.225836 14.1111 0.475222 13.3965 0.833529 12.7405C0.958714 12.5108 1.09918 12.292 1.24506 12.0751C1.36138 11.9016 1.47966 11.7291 1.59943 11.5576C1.95576 11.048 2.32738 10.5483 2.71329 10.0603C3.84587 8.62956 5.10512 7.29786 6.48315 6.1012C8.06719 4.72563 9.80796 3.52898 11.6749 2.57135C13.601 1.58367 15.6592 0.854246 17.7829 0.431867C18.6459 0.260353 19.5192 0.139599 20.3965 0.0701058C20.8573 0.0336343 21.3186 0.0124442 21.78 0.00357276C21.9461 0.000615614 22.1121 -0.000371966 22.2782 0.000120891ZM22.1787 5.90061C16.5956 5.90061 12.0697 10.4265 12.0697 16.0096C12.0697 21.5932 16.5956 26.1186 22.1787 26.1186C27.7618 26.1186 32.2877 21.5932 32.2877 16.0096C32.2877 10.4265 27.7618 5.90061 22.1787 5.90061ZM27.5587 16.0096C27.5587 18.9805 25.1496 21.3896 22.1787 21.3896C19.2077 21.3896 16.7987 18.9805 16.7987 16.0096C16.7987 13.0387 19.2077 10.6301 22.1787 10.6301C25.1496 10.6301 27.5587 13.0387 27.5587 16.0096Z" fill="#14FF8E"/>
</svg>
